<?xml version='1.0' encoding='UTF-8'?>
<svg xmlns="http://www.w3.org/2000/svg" version="1.1" width="1920" height="960" viewBox="0 0 1920 960">
  <rect x="0" y="0" width="320" height="320" fill="#FF4F00"/>
  <g transform="translate(0,0) scale(1.6) rotate(270,100,100)"><path xmlns="http://www.w3.org/2000/svg" d="M200 25L200 175L8.74228e-06 175L4.15258e-05 25L200 25Z" fill="#D9D9D6"/>
</g>
  <rect x="320" y="0" width="320" height="320" fill="#FFFFFF"/>
  <g transform="translate(320,0) scale(1.6)"><path xmlns="http://www.w3.org/2000/svg" d="M50 50C50 22.3858 72.3858 8.74228e-06 100 8.74228e-06C127.614 8.74228e-06 150 22.3858 150 50V150C150 177.614 127.614 200 100 200C72.3858 200 50 177.614 50 150V50Z M66.66649999999998,146.333 A33.3333,33.3333 0 1,0 133.3331,146.333 A33.3333,33.3333 0 1,0 66.66649999999998,146.333 Z" fill="#FFA300" fill-rule="evenodd"/>
</g>
  <rect x="640" y="0" width="320" height="320" fill="#FF4F00"/>
  <g transform="translate(640,0) scale(1.6) rotate(180,100,100)"><path xmlns="http://www.w3.org/2000/svg" d="M50 50C50 22.3858 72.3858 8.74228e-06 100 8.74228e-06C127.614 8.74228e-06 150 22.3858 150 50V150C150 177.614 127.614 200 100 200C72.3858 200 50 177.614 50 150V50Z M66.66649999999998,146.333 A33.3333,33.3333 0 1,0 133.3331,146.333 A33.3333,33.3333 0 1,0 66.66649999999998,146.333 Z" fill="#D9D9D6" fill-rule="evenodd"/>
</g>
  <rect x="960" y="0" width="320" height="320" fill="#FFFFFF"/>
  <g transform="translate(960,0) scale(1.6) rotate(270,100,100)"><path xmlns="http://www.w3.org/2000/svg" d="M200 25L200 175L8.74228e-06 175L4.15258e-05 25L200 25Z" fill="#FF4F00"/>
</g>
  <rect x="1280" y="0" width="320" height="320" fill="#FF4F00"/>
  <g transform="translate(1280,0) scale(1.6) rotate(180,100,100)"><path xmlns="http://www.w3.org/2000/svg" d="M200 1.67962e-05L200 150L8.74228e-06 150L4.41485e-05 -6.51651e-06L200 1.67962e-05Z" fill="#4997D0"/>
</g>
  <rect x="1600" y="0" width="320" height="320" fill="#121212"/>
  <g transform="translate(1600,0) scale(1.6)"><path xmlns="http://www.w3.org/2000/svg" d="M200 9.16683e-06L200 50L8.74228e-06 50L2.92866e-05 -1.41459e-05L200 9.16683e-06Z" fill="#4997D0"/>
</g>
  <rect x="0" y="320" width="320" height="320" fill="#4997D0"/>
  <g transform="translate(0,320) scale(1.6) rotate(90,100,100)"><path xmlns="http://www.w3.org/2000/svg" d="M200 1.56833e-05L200 100L8.74228e-06 100L3.67176e-05 -7.62939e-06L200 1.56833e-05Z" fill="#FFFFFF"/>
</g>
  <rect x="320" y="320" width="320" height="320" fill="#121212"/>
  <g transform="translate(320,320) scale(1.6) rotate(180,100,100)"><path xmlns="http://www.w3.org/2000/svg" d="M200 1.56833e-05L200 100L8.74228e-06 100L3.67176e-05 -7.62939e-06L200 1.56833e-05Z" fill="#FF4F00"/>
</g>
  <rect x="640" y="320" width="320" height="320" fill="#121212"/>
  <g transform="translate(640,320) scale(1.6) rotate(90,100,100)"><path xmlns="http://www.w3.org/2000/svg" d="M200 1.56833e-05L200 100L8.74228e-06 100L3.67176e-05 -7.62939e-06L200 1.56833e-05Z" fill="#FF4F00"/>
</g>
  <rect x="960" y="320" width="320" height="320" fill="#4997D0"/>
  <g transform="translate(960,320) scale(1.6) rotate(90,100,100)"><path xmlns="http://www.w3.org/2000/svg" d="M200 75L200 125L8.74228e-06 125L2.84124e-05 75L200 75Z" fill="#F3F3F3"/>
</g>
  <rect x="1280" y="320" width="320" height="320" fill="#FFFFFF"/>
  <g transform="translate(1280,320) scale(1.6) rotate(270,100,100)"><path xmlns="http://www.w3.org/2000/svg" d="M200 75L200 125L8.74228e-06 125L2.84124e-05 75L200 75Z" fill="#4997D0"/>
</g>
  <rect x="1600" y="320" width="320" height="320" fill="#121212"/>
  <g transform="translate(1600,320) scale(1.6)"><path xmlns="http://www.w3.org/2000/svg" d="M200 25L200 175L8.74228e-06 175L4.15258e-05 25L200 25Z" fill="#4997D0"/>
</g>
  <rect x="0" y="640" width="320" height="320" fill="#FFFFFF"/>
  <g transform="translate(0,640) scale(1.6) rotate(270,100,100)"><path xmlns="http://www.w3.org/2000/svg" d="M200 1.56833e-05L200 100L8.74228e-06 100L3.67176e-05 -7.62939e-06L200 1.56833e-05Z" fill="#FF4F00"/>
</g>
  <rect x="320" y="640" width="320" height="320" fill="#F3F3F3"/>
  <g transform="translate(320,640) scale(1.6) rotate(90,100,100)"><path xmlns="http://www.w3.org/2000/svg" d="M200 1.56833e-05L200 100L8.74228e-06 100L3.67176e-05 -7.62939e-06L200 1.56833e-05Z" fill="#121212"/>
</g>
  <rect x="640" y="640" width="320" height="320" fill="#121212"/>
  <g transform="translate(640,640) scale(1.6)"><path xmlns="http://www.w3.org/2000/svg" d="M50 50C50 22.3858 72.3858 8.74228e-06 100 8.74228e-06C127.614 8.74228e-06 150 22.3858 150 50V150C150 177.614 127.614 200 100 200C72.3858 200 50 177.614 50 150V50Z M66.66649999999998,146.333 A33.3333,33.3333 0 1,0 133.3331,146.333 A33.3333,33.3333 0 1,0 66.66649999999998,146.333 Z" fill="#FF4F00" fill-rule="evenodd"/>
</g>
  <rect x="960" y="640" width="320" height="320" fill="#FFFFFF"/>
  <g transform="translate(960,640) scale(1.6) rotate(270,100,100)"><path xmlns="http://www.w3.org/2000/svg" d="M200 1.67962e-05L200 150L8.74228e-06 150L4.41485e-05 -6.51651e-06L200 1.67962e-05Z" fill="#F3F3F3"/>
</g>
  <rect x="1280" y="640" width="320" height="320" fill="#121212"/>
  <g transform="translate(1280,640) scale(1.6) rotate(90,100,100)"><path xmlns="http://www.w3.org/2000/svg" d="M200 1.56833e-05L200 100L8.74228e-06 100L3.67176e-05 -7.62939e-06L200 1.56833e-05Z" fill="#F3F3F3"/>
</g>
  <rect x="1600" y="640" width="320" height="320" fill="#121212"/>
  <g transform="translate(1600,640) scale(1.6) rotate(180,100,100)"><path xmlns="http://www.w3.org/2000/svg" d="M200 1.56833e-05L200 100L8.74228e-06 100L3.67176e-05 -7.62939e-06L200 1.56833e-05Z" fill="#D9D9D6"/>
</g>
</svg>
