<?xml version='1.0' encoding='UTF-8'?>
<svg xmlns="http://www.w3.org/2000/svg" version="1.1" width="1920" height="960" viewBox="0 0 1920 960">
  <rect x="0" y="0" width="320" height="320" fill="#121212"/>
  <g transform="translate(0,0) scale(1.6)"><path xmlns="http://www.w3.org/2000/svg" d="M0.0,200.0 A40.0,40.0 0 1,0 80.0,200.0 A40.0,40.0 0 1,0 0.0,200.0 Z M80.0,200.0 A40.0,40.0 0 1,0 160.0,200.0 A40.0,40.0 0 1,0 80.0,200.0 Z M160.0120,120.9816 L160.0482,121.9627 L160.1084,122.9426 L160.1926,123.9207 L160.3008,124.8964 L160.4329,125.8692 L160.5889,126.8385 L160.7686,127.8036 L160.9719,128.7640 L161.1987,129.7192 L161.4490,130.6685 L161.7224,131.6114 L162.0189,132.5473 L162.3382,133.4756 L162.6803,134.3958 L163.0448,135.3073 L163.4316,136.2097 L163.8404,137.1022 L164.2710,137.9845 L164.7231,138.8559 L165.1965,139.7159 L165.6909,140.5641 L166.2059,141.3999 L166.7412,142.2228 L167.2966,143.0323 L167.8717,143.8280 L168.4661,144.6093 L169.0796,145.3757 L169.7116,146.1269 L170.3620,146.8624 L171.0301,147.5816 L171.7157,148.2843 L172.4184,148.9699 L173.1376,149.6380 L173.8731,150.2884 L174.6243,150.9204 L175.3907,151.5339 L176.1720,152.1283 L176.9677,152.7034 L177.7772,153.2588 L178.6001,153.7941 L179.4359,154.3091 L180.2841,154.8035 L181.1441,155.2769 L182.0155,155.7290 L182.8978,156.1596 L183.7903,156.5684 L184.6927,156.9552 L185.6042,157.3197 L186.5244,157.6618 L187.4527,157.9811 L188.3886,158.2776 L189.3315,158.5510 L190.2808,158.8013 L191.2360,159.0281 L192.1964,159.2314 L193.1615,159.4111 L194.1308,159.5671 L195.1036,159.6992 L196.0793,159.8074 L197.0574,159.8916 L198.0373,159.9518 L199.0184,159.9880 L200.0000,160.0000 L200.0000,80.0000 L199.0184,80.0120 L198.0373,80.0482 L197.0574,80.1084 L196.0793,80.1926 L195.1036,80.3008 L194.1308,80.4329 L193.1615,80.5889 L192.1964,80.7686 L191.2360,80.9719 L190.2808,81.1987 L189.3315,81.4490 L188.3886,81.7224 L187.4527,82.0189 L186.5244,82.3382 L185.6042,82.6803 L184.6927,83.0448 L183.7903,83.4316 L182.8978,83.8404 L182.0155,84.2710 L181.1441,84.7231 L180.2841,85.1965 L179.4359,85.6909 L178.6001,86.2059 L177.7772,86.7412 L176.9677,87.2966 L176.1720,87.8717 L175.3907,88.4661 L174.6243,89.0796 L173.8731,89.7116 L173.1376,90.3620 L172.4184,91.0301 L171.7157,91.7157 L171.0301,92.4184 L170.3620,93.1376 L169.7116,93.8731 L169.0796,94.6243 L168.4661,95.3907 L167.8717,96.1720 L167.2966,96.9677 L166.7412,97.7772 L166.2059,98.6001 L165.6909,99.4359 L165.1965,100.2841 L164.7231,101.1441 L164.2710,102.0155 L163.8404,102.8978 L163.4316,103.7903 L163.0448,104.6927 L162.6803,105.6042 L162.3382,106.5244 L162.0189,107.4527 L161.7224,108.3886 L161.4490,109.3315 L161.1987,110.2808 L160.9719,111.2360 L160.7686,112.1964 L160.5889,113.1615 L160.4329,114.1308 L160.3008,115.1036 L160.1926,116.0793 L160.1084,117.0574 L160.0482,118.0373 L160.0120,119.0184 L160.0000,120.0000 Z M160.0120,40.9816 L160.0482,41.9627 L160.1084,42.9426 L160.1926,43.9207 L160.3008,44.8964 L160.4329,45.8692 L160.5889,46.8385 L160.7686,47.8036 L160.9719,48.7640 L161.1987,49.7192 L161.4490,50.6685 L161.7224,51.6114 L162.0189,52.5473 L162.3382,53.4756 L162.6803,54.3958 L163.0448,55.3073 L163.4316,56.2097 L163.8404,57.1022 L164.2710,57.9845 L164.7231,58.8559 L165.1965,59.7159 L165.6909,60.5641 L166.2059,61.3999 L166.7412,62.2228 L167.2966,63.0323 L167.8717,63.8280 L168.4661,64.6093 L169.0796,65.3757 L169.7116,66.1269 L170.3620,66.8624 L171.0301,67.5816 L171.7157,68.2843 L172.4184,68.9699 L173.1376,69.6380 L173.8731,70.2884 L174.6243,70.9204 L175.3907,71.5339 L176.1720,72.1283 L176.9677,72.7034 L177.7772,73.2588 L178.6001,73.7941 L179.4359,74.3091 L180.2841,74.8035 L181.1441,75.2769 L182.0155,75.7290 L182.8978,76.1596 L183.7903,76.5684 L184.6927,76.9552 L185.6042,77.3197 L186.5244,77.6618 L187.4527,77.9811 L188.3886,78.2776 L189.3315,78.5510 L190.2808,78.8013 L191.2360,79.0281 L192.1964,79.2314 L193.1615,79.4111 L194.1308,79.5671 L195.1036,79.6992 L196.0793,79.8074 L197.0574,79.8916 L198.0373,79.9518 L199.0184,79.9880 L200.0000,80.0000 L200.0000,0.0000 L199.0184,0.0120 L198.0373,0.0482 L197.0574,0.1084 L196.0793,0.1926 L195.1036,0.3008 L194.1308,0.4329 L193.1615,0.5889 L192.1964,0.7686 L191.2360,0.9719 L190.2808,1.1987 L189.3315,1.4490 L188.3886,1.7224 L187.4527,2.0189 L186.5244,2.3382 L185.6042,2.6803 L184.6927,3.0448 L183.7903,3.4316 L182.8978,3.8404 L182.0155,4.2710 L181.1441,4.7231 L180.2841,5.1965 L179.4359,5.6909 L178.6001,6.2059 L177.7772,6.7412 L176.9677,7.2966 L176.1720,7.8717 L175.3907,8.4661 L174.6243,9.0796 L173.8731,9.7116 L173.1376,10.3620 L172.4184,11.0301 L171.7157,11.7157 L171.0301,12.4184 L170.3620,13.1376 L169.7116,13.8731 L169.0796,14.6243 L168.4661,15.3907 L167.8717,16.1720 L167.2966,16.9677 L166.7412,17.7772 L166.2059,18.6001 L165.6909,19.4359 L165.1965,20.2841 L164.7231,21.1441 L164.2710,22.0155 L163.8404,22.8978 L163.4316,23.7903 L163.0448,24.6927 L162.6803,25.6042 L162.3382,26.5244 L162.0189,27.4527 L161.7224,28.3886 L161.4490,29.3315 L161.1987,30.2808 L160.9719,31.2360 L160.7686,32.1964 L160.5889,33.1615 L160.4329,34.1308 L160.3008,35.1036 L160.1926,36.0793 L160.1084,37.0574 L160.0482,38.0373 L160.0120,39.0184 L160.0000,40.0000 L160.0000,40.0000 Z M199.0184,160.0120 L198.0373,160.0482 L197.0574,160.1084 L196.0793,160.1926 L195.1036,160.3008 L194.1308,160.4329 L193.1615,160.5889 L192.1964,160.7686 L191.2360,160.9719 L190.2808,161.1987 L189.3315,161.4490 L188.3886,161.7224 L187.4527,162.0189 L186.5244,162.3382 L185.6042,162.6803 L184.6927,163.0448 L183.7903,163.4316 L182.8978,163.8404 L182.0155,164.2710 L181.1441,164.7231 L180.2841,165.1965 L179.4359,165.6909 L178.6001,166.2059 L177.7772,166.7412 L176.9677,167.2966 L176.1720,167.8717 L175.3907,168.4661 L174.6243,169.0796 L173.8731,169.7116 L173.1376,170.3620 L172.4184,171.0301 L171.7157,171.7157 L171.0301,172.4184 L170.3620,173.1376 L169.7116,173.8731 L169.0796,174.6243 L168.4661,175.3907 L167.8717,176.1720 L167.2966,176.9677 L166.7412,177.7772 L166.2059,178.6001 L165.6909,179.4359 L165.1965,180.2841 L164.7231,181.1441 L164.2710,182.0155 L163.8404,182.8978 L163.4316,183.7903 L163.0448,184.6927 L162.6803,185.6042 L162.3382,186.5244 L162.0189,187.4527 L161.7224,188.3886 L161.4490,189.3315 L161.1987,190.2808 L160.9719,191.2360 L160.7686,192.1964 L160.5889,193.1615 L160.4329,194.1308 L160.3008,195.1036 L160.1926,196.0793 L160.1084,197.0574 L160.0482,198.0373 L160.0120,199.0184 L160.0000,200.0000 L200.0000,200.0000 L200.0000,160.0000 Z" fill="#FFFFFF"/>
</g>
  <rect x="320" y="0" width="320" height="320" fill="#121212"/>
  <g transform="translate(320,0) scale(1.6) rotate(90,100,100)"><path xmlns="http://www.w3.org/2000/svg" d="M56.6891 150C58.8006 157.3 61.3602 164.017 64.2928 170L1.31134e-06 170L1.56959e-05 190L78.1794 190C84.7732 196.407 92.1768 200 100 200C127.614 200 150 155.228 150 100C150 44.7715 127.614 7.76377e-06 100 6.55671e-06C92.1768 6.21474e-06 84.7732 3.59343 78.1794 10L8.30516e-06 10L7.43094e-06 30L64.2928 30C61.3603 35.9829 58.8006 42.6998 56.6891 50L6.55671e-06 50L5.68248e-06 70L52.289 70C51.282 76.4124 50.5893 83.1031 50.2469 90L4.80825e-06 90L3.93402e-06 110L50.2469 110C50.5893 116.897 51.282 123.588 52.289 130L3.0598e-06 130L1.74444e-05 150L56.6891 150Z M66.66649999999998,100.0 A33.3333,33.3333 0 1,0 133.3331,100.0 A33.3333,33.3333 0 1,0 66.66649999999998,100.0 Z" fill="#FFFFFF" fill-rule="evenodd"/>
</g>
  <rect x="640" y="0" width="320" height="320" fill="#121212"/>
  <g transform="translate(640,0) scale(1.6) rotate(180,100,100)"><path xmlns="http://www.w3.org/2000/svg" d="M200 200C144.772 200 8.74228e-06 200 8.74228e-06 200C8.74228e-06 144.772 44.7715 100 100 100C155.228 100 200 144.772 200 200Z M1.74846e-05 -8.74228e-06C55.2285 -3.91405e-06 200 8.74228e-06 200 8.74228e-06C200 55.2285 155.228 100 100 100C44.7715 100 1.26563e-05 55.2285 1.74846e-05 -8.74228e-06Z" fill="#FFFFFF"/>
</g>
  <rect x="960" y="0" width="320" height="320" fill="#121212"/>
  <g transform="translate(960,0) scale(1.6) rotate(270,100,100)"><path xmlns="http://www.w3.org/2000/svg" d="M0.0,200.0 A40.0,40.0 0 1,0 80.0,200.0 A40.0,40.0 0 1,0 0.0,200.0 Z M80.0,200.0 A40.0,40.0 0 1,0 160.0,200.0 A40.0,40.0 0 1,0 80.0,200.0 Z M160.0120,120.9816 L160.0482,121.9627 L160.1084,122.9426 L160.1926,123.9207 L160.3008,124.8964 L160.4329,125.8692 L160.5889,126.8385 L160.7686,127.8036 L160.9719,128.7640 L161.1987,129.7192 L161.4490,130.6685 L161.7224,131.6114 L162.0189,132.5473 L162.3382,133.4756 L162.6803,134.3958 L163.0448,135.3073 L163.4316,136.2097 L163.8404,137.1022 L164.2710,137.9845 L164.7231,138.8559 L165.1965,139.7159 L165.6909,140.5641 L166.2059,141.3999 L166.7412,142.2228 L167.2966,143.0323 L167.8717,143.8280 L168.4661,144.6093 L169.0796,145.3757 L169.7116,146.1269 L170.3620,146.8624 L171.0301,147.5816 L171.7157,148.2843 L172.4184,148.9699 L173.1376,149.6380 L173.8731,150.2884 L174.6243,150.9204 L175.3907,151.5339 L176.1720,152.1283 L176.9677,152.7034 L177.7772,153.2588 L178.6001,153.7941 L179.4359,154.3091 L180.2841,154.8035 L181.1441,155.2769 L182.0155,155.7290 L182.8978,156.1596 L183.7903,156.5684 L184.6927,156.9552 L185.6042,157.3197 L186.5244,157.6618 L187.4527,157.9811 L188.3886,158.2776 L189.3315,158.5510 L190.2808,158.8013 L191.2360,159.0281 L192.1964,159.2314 L193.1615,159.4111 L194.1308,159.5671 L195.1036,159.6992 L196.0793,159.8074 L197.0574,159.8916 L198.0373,159.9518 L199.0184,159.9880 L200.0000,160.0000 L200.0000,80.0000 L199.0184,80.0120 L198.0373,80.0482 L197.0574,80.1084 L196.0793,80.1926 L195.1036,80.3008 L194.1308,80.4329 L193.1615,80.5889 L192.1964,80.7686 L191.2360,80.9719 L190.2808,81.1987 L189.3315,81.4490 L188.3886,81.7224 L187.4527,82.0189 L186.5244,82.3382 L185.6042,82.6803 L184.6927,83.0448 L183.7903,83.4316 L182.8978,83.8404 L182.0155,84.2710 L181.1441,84.7231 L180.2841,85.1965 L179.4359,85.6909 L178.6001,86.2059 L177.7772,86.7412 L176.9677,87.2966 L176.1720,87.8717 L175.3907,88.4661 L174.6243,89.0796 L173.8731,89.7116 L173.1376,90.3620 L172.4184,91.0301 L171.7157,91.7157 L171.0301,92.4184 L170.3620,93.1376 L169.7116,93.8731 L169.0796,94.6243 L168.4661,95.3907 L167.8717,96.1720 L167.2966,96.9677 L166.7412,97.7772 L166.2059,98.6001 L165.6909,99.4359 L165.1965,100.2841 L164.7231,101.1441 L164.2710,102.0155 L163.8404,102.8978 L163.4316,103.7903 L163.0448,104.6927 L162.6803,105.6042 L162.3382,106.5244 L162.0189,107.4527 L161.7224,108.3886 L161.4490,109.3315 L161.1987,110.2808 L160.9719,111.2360 L160.7686,112.1964 L160.5889,113.1615 L160.4329,114.1308 L160.3008,115.1036 L160.1926,116.0793 L160.1084,117.0574 L160.0482,118.0373 L160.0120,119.0184 L160.0000,120.0000 Z M160.0120,40.9816 L160.0482,41.9627 L160.1084,42.9426 L160.1926,43.9207 L160.3008,44.8964 L160.4329,45.8692 L160.5889,46.8385 L160.7686,47.8036 L160.9719,48.7640 L161.1987,49.7192 L161.4490,50.6685 L161.7224,51.6114 L162.0189,52.5473 L162.3382,53.4756 L162.6803,54.3958 L163.0448,55.3073 L163.4316,56.2097 L163.8404,57.1022 L164.2710,57.9845 L164.7231,58.8559 L165.1965,59.7159 L165.6909,60.5641 L166.2059,61.3999 L166.7412,62.2228 L167.2966,63.0323 L167.8717,63.8280 L168.4661,64.6093 L169.0796,65.3757 L169.7116,66.1269 L170.3620,66.8624 L171.0301,67.5816 L171.7157,68.2843 L172.4184,68.9699 L173.1376,69.6380 L173.8731,70.2884 L174.6243,70.9204 L175.3907,71.5339 L176.1720,72.1283 L176.9677,72.7034 L177.7772,73.2588 L178.6001,73.7941 L179.4359,74.3091 L180.2841,74.8035 L181.1441,75.2769 L182.0155,75.7290 L182.8978,76.1596 L183.7903,76.5684 L184.6927,76.9552 L185.6042,77.3197 L186.5244,77.6618 L187.4527,77.9811 L188.3886,78.2776 L189.3315,78.5510 L190.2808,78.8013 L191.2360,79.0281 L192.1964,79.2314 L193.1615,79.4111 L194.1308,79.5671 L195.1036,79.6992 L196.0793,79.8074 L197.0574,79.8916 L198.0373,79.9518 L199.0184,79.9880 L200.0000,80.0000 L200.0000,0.0000 L199.0184,0.0120 L198.0373,0.0482 L197.0574,0.1084 L196.0793,0.1926 L195.1036,0.3008 L194.1308,0.4329 L193.1615,0.5889 L192.1964,0.7686 L191.2360,0.9719 L190.2808,1.1987 L189.3315,1.4490 L188.3886,1.7224 L187.4527,2.0189 L186.5244,2.3382 L185.6042,2.6803 L184.6927,3.0448 L183.7903,3.4316 L182.8978,3.8404 L182.0155,4.2710 L181.1441,4.7231 L180.2841,5.1965 L179.4359,5.6909 L178.6001,6.2059 L177.7772,6.7412 L176.9677,7.2966 L176.1720,7.8717 L175.3907,8.4661 L174.6243,9.0796 L173.8731,9.7116 L173.1376,10.3620 L172.4184,11.0301 L171.7157,11.7157 L171.0301,12.4184 L170.3620,13.1376 L169.7116,13.8731 L169.0796,14.6243 L168.4661,15.3907 L167.8717,16.1720 L167.2966,16.9677 L166.7412,17.7772 L166.2059,18.6001 L165.6909,19.4359 L165.1965,20.2841 L164.7231,21.1441 L164.2710,22.0155 L163.8404,22.8978 L163.4316,23.7903 L163.0448,24.6927 L162.6803,25.6042 L162.3382,26.5244 L162.0189,27.4527 L161.7224,28.3886 L161.4490,29.3315 L161.1987,30.2808 L160.9719,31.2360 L160.7686,32.1964 L160.5889,33.1615 L160.4329,34.1308 L160.3008,35.1036 L160.1926,36.0793 L160.1084,37.0574 L160.0482,38.0373 L160.0120,39.0184 L160.0000,40.0000 L160.0000,40.0000 Z M199.0184,160.0120 L198.0373,160.0482 L197.0574,160.1084 L196.0793,160.1926 L195.1036,160.3008 L194.1308,160.4329 L193.1615,160.5889 L192.1964,160.7686 L191.2360,160.9719 L190.2808,161.1987 L189.3315,161.4490 L188.3886,161.7224 L187.4527,162.0189 L186.5244,162.3382 L185.6042,162.6803 L184.6927,163.0448 L183.7903,163.4316 L182.8978,163.8404 L182.0155,164.2710 L181.1441,164.7231 L180.2841,165.1965 L179.4359,165.6909 L178.6001,166.2059 L177.7772,166.7412 L176.9677,167.2966 L176.1720,167.8717 L175.3907,168.4661 L174.6243,169.0796 L173.8731,169.7116 L173.1376,170.3620 L172.4184,171.0301 L171.7157,171.7157 L171.0301,172.4184 L170.3620,173.1376 L169.7116,173.8731 L169.0796,174.6243 L168.4661,175.3907 L167.8717,176.1720 L167.2966,176.9677 L166.7412,177.7772 L166.2059,178.6001 L165.6909,179.4359 L165.1965,180.2841 L164.7231,181.1441 L164.2710,182.0155 L163.8404,182.8978 L163.4316,183.7903 L163.0448,184.6927 L162.6803,185.6042 L162.3382,186.5244 L162.0189,187.4527 L161.7224,188.3886 L161.4490,189.3315 L161.1987,190.2808 L160.9719,191.2360 L160.7686,192.1964 L160.5889,193.1615 L160.4329,194.1308 L160.3008,195.1036 L160.1926,196.0793 L160.1084,197.0574 L160.0482,198.0373 L160.0120,199.0184 L160.0000,200.0000 L200.0000,200.0000 L200.0000,160.0000 Z" fill="#FFFFFF"/>
</g>
  <rect x="1280" y="0" width="320" height="320" fill="#121212"/>
  <g transform="translate(1280,0) scale(1.6)"><path xmlns="http://www.w3.org/2000/svg" d="M101.046 0.0050954C100.849 0.00199645 100.652 0.000313685 100.455 5.32538e-05L100.449 2.23595e-05L100.444 4.03871e-05L100.401 1.74946e-05L100.358 3.94186e-05L100.349 3.83041e-05L100.309 5.70389e-05L100.305 3.83041e-05L100.302 5.223e-05L100.261 3.83041e-05L100.248 4.17448e-05L100.225 1.9927e-05C100.211 1.99258e-05 100.197 4.28125e-05 100.183 8.85747e-05C100.173 7.36736e-05 100.163 6.10756e-05 100.153 5.07809e-05C100.148 3.10244e-05 100.142 2.11437e-05 100.137 2.11432e-05L100.131 3.07249e-05C100.117 2.10955e-05 100.103 1.62796e-05 100.089 1.62783e-05C100.078 1.62774e-05 100.067 1.90319e-05 100.057 2.45413e-05C100.038 1.40118e-05 100.019 8.74498e-06 100 8.74228e-06L99.9354 2.91409e-05L99.9126 1.87108e-05C99.8861 1.87085e-05 99.8596 6.08214e-05 99.8331 0.000145018C44.6814 0.0902254 1.68803e-05 44.8271 8.74228e-06 100C2.63876e-06 155.168 44.6734 199.902 99.8183 200L99.8698 200L99.9126 200L99.9502 200L100 200H100L100.041 200L100.065 200C100.074 200 100.083 200 100.093 200C100.099 200 100.106 200 100.113 200L100.129 200C100.143 200 100.158 200 100.172 200L100.197 200L100.217 200L100.225 200H100.227L100.265 200L100.302 200L100.305 200L100.31 200L100.353 200L100.391 200H100.405L100.444 200L100.449 200L100.454 200C100.648 200 100.842 199.998 101.035 199.995L101.108 199.994L101.177 199.993C155.863 199.362 200 154.836 200 100C200 45.1514 155.842 0.616484 101.138 0.00635371C101.108 0.00591104 101.077 0.0054916 101.046 0.0050954ZM58.5705 15.6393C37.0635 33.3961 22.8006 64.5432 22.8006 100C22.8006 135.461 37.0685 166.611 58.581 184.367C31.6435 168.159 13.2 136.615 13.2 100C13.2 63.3897 31.6387 31.8492 58.5705 15.6393ZM133.023 14.2473C151.45 31.7377 163.777 63.5976 163.777 100C163.777 136.398 151.453 168.255 133.031 185.746C156.944 169.92 173.381 137.428 173.381 100C173.381 62.5673 156.941 30.071 133.023 14.2473ZM58.9686 31.436C63.8909 23.6709 69.5034 17.4135 75.6812 12.7998C60.6203 29.9415 50.4486 62.5693 50.4486 100C50.4486 137.45 60.6329 170.093 75.7069 187.227C69.5189 182.612 63.8977 176.348 58.9686 168.572C53.3646 159.732 48.9606 149.408 45.8726 137.892C42.6566 125.9 41.0286 113.152 41.0286 100.004C41.0286 86.856 42.6566 74.108 45.8726 62.116C48.9606 50.6 53.3646 40.276 58.9686 31.436ZM116.118 189.476C116.267 189.352 116.416 189.227 116.565 189.1C122.041 184.416 127.001 177.632 131.301 168.936C140.377 150.592 145.373 126.108 145.373 100C145.373 73.892 140.377 49.412 131.301 31.064C127.001 22.368 122.041 15.584 116.565 10.9C116.416 10.7727 116.267 10.6471 116.118 10.5233C127.774 26.9357 135.777 60.8393 135.777 100C135.777 139.16 127.775 173.063 116.118 189.476ZM78.4966 100C78.4966 58.862 83.8719 23.5254 91.5543 8.17257C90.8515 8.84517 90.1494 9.59846 89.4487 10.432C85.5807 15.036 81.9167 22.02 78.8567 30.628C72.2926 49.096 68.6767 73.732 68.6766 100C68.6766 126.268 72.2926 150.904 78.8566 169.372C81.9166 177.98 85.5806 184.964 89.4486 189.568C90.1494 190.402 90.8515 191.155 91.5543 191.827C83.8719 176.475 78.4966 141.138 78.4966 100ZM103.243 6.73626C106.13 21.2293 108.177 57.5219 108.177 100C108.177 142.476 106.13 178.767 103.243 193.262C105.554 189.943 108.669 183.072 111.529 169.864C115.557 151.248 117.777 126.436 117.777 100C117.777 73.564 115.557 48.752 111.529 30.136C108.67 16.9249 105.555 10.0537 103.243 6.73626ZM142.748 183.551C168.961 167.115 186.8 136.01 186.8 100C186.8 63.9853 168.956 32.8768 142.737 16.4426C163.71 34.3259 177.553 65.0719 177.553 100C177.553 134.924 163.715 165.666 142.748 183.551ZM68.6244 13.413C49.7034 30.7121 36.9766 63.0109 36.9766 100C36.9766 136.993 49.7063 169.295 68.6321 186.593C44.0104 171.1 26.9726 138.108 26.9726 100C26.9726 61.8967 44.0081 28.9082 68.6244 13.413ZM149.505 100C149.505 138.629 138.671 172.143 122.81 188.799C129.885 184.075 136.268 177.266 141.785 168.564C147.389 159.724 151.793 149.4 154.881 137.884C158.097 125.892 159.725 113.144 159.725 99.996C159.725 86.848 158.097 74.1 154.881 62.108C151.793 50.592 147.389 40.268 141.785 31.428C136.265 22.72 129.877 15.908 122.797 11.184L122.785 11.1761C138.658 27.8232 149.505 61.3514 149.505 100ZM84.7949 190.247C84.3243 189.882 83.8555 189.5 83.3886 189.1C77.9126 184.416 72.9526 177.632 68.6526 168.936C59.5766 150.588 54.5806 126.108 54.5806 100C54.5806 73.892 59.5766 49.408 68.6526 31.064C72.9526 22.368 77.9126 15.584 83.3886 10.9C83.855 10.5013 84.3233 10.1196 84.7934 9.75515C72.835 25.8609 64.5766 60.2178 64.5766 100C64.5766 139.784 72.8357 174.142 84.7949 190.247ZM110.905 189.568C110.204 190.402 109.502 191.155 108.799 191.827C116.481 176.475 121.857 141.138 121.857 100C121.857 58.862 116.481 23.5254 108.799 8.1726C109.502 8.8452 110.204 9.59849 110.905 10.432C114.773 15.036 118.437 22.02 121.497 30.628C128.061 49.096 131.677 73.732 131.677 100C131.677 126.268 128.061 150.904 121.497 169.372C118.437 177.98 114.773 184.964 110.905 189.568ZM97.6645 194.012C95.3134 191.035 91.9181 184.163 88.8246 169.864C84.7966 151.248 82.5766 126.436 82.5766 100C82.5766 73.564 84.7966 48.752 88.8246 30.136C91.9203 15.8397 95.314 8.96768 97.6642 5.98922C94.6964 19.9499 92.5766 56.772 92.5766 100C92.5766 143.23 94.6966 180.053 97.6645 194.012ZM160.667 174.405C179.166 156.098 190.8 129.546 190.8 100C190.8 70.4544 179.166 43.9015 160.667 25.595C182.231 43.199 196 69.9916 196 100C196 130.008 182.231 156.801 160.667 174.405ZM39.3331 174.405C20.8345 156.099 9.20003 129.546 9.20003 100C9.20003 70.4543 20.8346 43.9013 39.3333 25.5949C17.7687 43.1988 4.00001 69.9915 4.00001 100C4 130.008 17.7686 156.801 39.3331 174.405ZM98.6606 166.152C99.2206 174.306 99.8174 180.342 100.377 184.799C100.94 180.342 101.533 174.306 102.093 166.152C103.345 147.932 104.033 124.436 104.033 100C104.033 75.564 103.345 52.068 102.093 33.848C101.533 25.6938 100.936 19.658 100.376 15.2009C99.8137 19.658 99.2206 25.6938 98.6607 33.848C97.4086 52.068 96.7206 75.564 96.7206 100C96.7206 124.436 97.4086 147.932 98.6606 166.152Z" fill="#FFFFFF"/>
</g>
  <rect x="1600" y="0" width="320" height="320" fill="#121212"/>
  <g transform="translate(1600,0) scale(1.6) rotate(90,100,100)"><path xmlns="http://www.w3.org/2000/svg" d="M56.6891 150C58.8006 157.3 61.3602 164.017 64.2928 170L1.31134e-06 170L1.56959e-05 190L78.1794 190C84.7732 196.407 92.1768 200 100 200C127.614 200 150 155.228 150 100C150 44.7715 127.614 7.76377e-06 100 6.55671e-06C92.1768 6.21474e-06 84.7732 3.59343 78.1794 10L8.30516e-06 10L7.43094e-06 30L64.2928 30C61.3603 35.9829 58.8006 42.6998 56.6891 50L6.55671e-06 50L5.68248e-06 70L52.289 70C51.282 76.4124 50.5893 83.1031 50.2469 90L4.80825e-06 90L3.93402e-06 110L50.2469 110C50.5893 116.897 51.282 123.588 52.289 130L3.0598e-06 130L1.74444e-05 150L56.6891 150Z M66.66649999999998,100.0 A33.3333,33.3333 0 1,0 133.3331,100.0 A33.3333,33.3333 0 1,0 66.66649999999998,100.0 Z" fill="#FFFFFF" fill-rule="evenodd"/>
</g>
  <rect x="0" y="320" width="320" height="320" fill="#121212"/>
  <g transform="translate(0,320) scale(1.6) rotate(180,100,100)"><path xmlns="http://www.w3.org/2000/svg" d="M101.046 0.0050954C100.849 0.00199645 100.652 0.000313685 100.455 5.32538e-05L100.449 2.23595e-05L100.444 4.03871e-05L100.401 1.74946e-05L100.358 3.94186e-05L100.349 3.83041e-05L100.309 5.70389e-05L100.305 3.83041e-05L100.302 5.223e-05L100.261 3.83041e-05L100.248 4.17448e-05L100.225 1.9927e-05C100.211 1.99258e-05 100.197 4.28125e-05 100.183 8.85747e-05C100.173 7.36736e-05 100.163 6.10756e-05 100.153 5.07809e-05C100.148 3.10244e-05 100.142 2.11437e-05 100.137 2.11432e-05L100.131 3.07249e-05C100.117 2.10955e-05 100.103 1.62796e-05 100.089 1.62783e-05C100.078 1.62774e-05 100.067 1.90319e-05 100.057 2.45413e-05C100.038 1.40118e-05 100.019 8.74498e-06 100 8.74228e-06L99.9354 2.91409e-05L99.9126 1.87108e-05C99.8861 1.87085e-05 99.8596 6.08214e-05 99.8331 0.000145018C44.6814 0.0902254 1.68803e-05 44.8271 8.74228e-06 100C2.63876e-06 155.168 44.6734 199.902 99.8183 200L99.8698 200L99.9126 200L99.9502 200L100 200H100L100.041 200L100.065 200C100.074 200 100.083 200 100.093 200C100.099 200 100.106 200 100.113 200L100.129 200C100.143 200 100.158 200 100.172 200L100.197 200L100.217 200L100.225 200H100.227L100.265 200L100.302 200L100.305 200L100.31 200L100.353 200L100.391 200H100.405L100.444 200L100.449 200L100.454 200C100.648 200 100.842 199.998 101.035 199.995L101.108 199.994L101.177 199.993C155.863 199.362 200 154.836 200 100C200 45.1514 155.842 0.616484 101.138 0.00635371C101.108 0.00591104 101.077 0.0054916 101.046 0.0050954ZM58.5705 15.6393C37.0635 33.3961 22.8006 64.5432 22.8006 100C22.8006 135.461 37.0685 166.611 58.581 184.367C31.6435 168.159 13.2 136.615 13.2 100C13.2 63.3897 31.6387 31.8492 58.5705 15.6393ZM133.023 14.2473C151.45 31.7377 163.777 63.5976 163.777 100C163.777 136.398 151.453 168.255 133.031 185.746C156.944 169.92 173.381 137.428 173.381 100C173.381 62.5673 156.941 30.071 133.023 14.2473ZM58.9686 31.436C63.8909 23.6709 69.5034 17.4135 75.6812 12.7998C60.6203 29.9415 50.4486 62.5693 50.4486 100C50.4486 137.45 60.6329 170.093 75.7069 187.227C69.5189 182.612 63.8977 176.348 58.9686 168.572C53.3646 159.732 48.9606 149.408 45.8726 137.892C42.6566 125.9 41.0286 113.152 41.0286 100.004C41.0286 86.856 42.6566 74.108 45.8726 62.116C48.9606 50.6 53.3646 40.276 58.9686 31.436ZM116.118 189.476C116.267 189.352 116.416 189.227 116.565 189.1C122.041 184.416 127.001 177.632 131.301 168.936C140.377 150.592 145.373 126.108 145.373 100C145.373 73.892 140.377 49.412 131.301 31.064C127.001 22.368 122.041 15.584 116.565 10.9C116.416 10.7727 116.267 10.6471 116.118 10.5233C127.774 26.9357 135.777 60.8393 135.777 100C135.777 139.16 127.775 173.063 116.118 189.476ZM78.4966 100C78.4966 58.862 83.8719 23.5254 91.5543 8.17257C90.8515 8.84517 90.1494 9.59846 89.4487 10.432C85.5807 15.036 81.9167 22.02 78.8567 30.628C72.2926 49.096 68.6767 73.732 68.6766 100C68.6766 126.268 72.2926 150.904 78.8566 169.372C81.9166 177.98 85.5806 184.964 89.4486 189.568C90.1494 190.402 90.8515 191.155 91.5543 191.827C83.8719 176.475 78.4966 141.138 78.4966 100ZM103.243 6.73626C106.13 21.2293 108.177 57.5219 108.177 100C108.177 142.476 106.13 178.767 103.243 193.262C105.554 189.943 108.669 183.072 111.529 169.864C115.557 151.248 117.777 126.436 117.777 100C117.777 73.564 115.557 48.752 111.529 30.136C108.67 16.9249 105.555 10.0537 103.243 6.73626ZM142.748 183.551C168.961 167.115 186.8 136.01 186.8 100C186.8 63.9853 168.956 32.8768 142.737 16.4426C163.71 34.3259 177.553 65.0719 177.553 100C177.553 134.924 163.715 165.666 142.748 183.551ZM68.6244 13.413C49.7034 30.7121 36.9766 63.0109 36.9766 100C36.9766 136.993 49.7063 169.295 68.6321 186.593C44.0104 171.1 26.9726 138.108 26.9726 100C26.9726 61.8967 44.0081 28.9082 68.6244 13.413ZM149.505 100C149.505 138.629 138.671 172.143 122.81 188.799C129.885 184.075 136.268 177.266 141.785 168.564C147.389 159.724 151.793 149.4 154.881 137.884C158.097 125.892 159.725 113.144 159.725 99.996C159.725 86.848 158.097 74.1 154.881 62.108C151.793 50.592 147.389 40.268 141.785 31.428C136.265 22.72 129.877 15.908 122.797 11.184L122.785 11.1761C138.658 27.8232 149.505 61.3514 149.505 100ZM84.7949 190.247C84.3243 189.882 83.8555 189.5 83.3886 189.1C77.9126 184.416 72.9526 177.632 68.6526 168.936C59.5766 150.588 54.5806 126.108 54.5806 100C54.5806 73.892 59.5766 49.408 68.6526 31.064C72.9526 22.368 77.9126 15.584 83.3886 10.9C83.855 10.5013 84.3233 10.1196 84.7934 9.75515C72.835 25.8609 64.5766 60.2178 64.5766 100C64.5766 139.784 72.8357 174.142 84.7949 190.247ZM110.905 189.568C110.204 190.402 109.502 191.155 108.799 191.827C116.481 176.475 121.857 141.138 121.857 100C121.857 58.862 116.481 23.5254 108.799 8.1726C109.502 8.8452 110.204 9.59849 110.905 10.432C114.773 15.036 118.437 22.02 121.497 30.628C128.061 49.096 131.677 73.732 131.677 100C131.677 126.268 128.061 150.904 121.497 169.372C118.437 177.98 114.773 184.964 110.905 189.568ZM97.6645 194.012C95.3134 191.035 91.9181 184.163 88.8246 169.864C84.7966 151.248 82.5766 126.436 82.5766 100C82.5766 73.564 84.7966 48.752 88.8246 30.136C91.9203 15.8397 95.314 8.96768 97.6642 5.98922C94.6964 19.9499 92.5766 56.772 92.5766 100C92.5766 143.23 94.6966 180.053 97.6645 194.012ZM160.667 174.405C179.166 156.098 190.8 129.546 190.8 100C190.8 70.4544 179.166 43.9015 160.667 25.595C182.231 43.199 196 69.9916 196 100C196 130.008 182.231 156.801 160.667 174.405ZM39.3331 174.405C20.8345 156.099 9.20003 129.546 9.20003 100C9.20003 70.4543 20.8346 43.9013 39.3333 25.5949C17.7687 43.1988 4.00001 69.9915 4.00001 100C4 130.008 17.7686 156.801 39.3331 174.405ZM98.6606 166.152C99.2206 174.306 99.8174 180.342 100.377 184.799C100.94 180.342 101.533 174.306 102.093 166.152C103.345 147.932 104.033 124.436 104.033 100C104.033 75.564 103.345 52.068 102.093 33.848C101.533 25.6938 100.936 19.658 100.376 15.2009C99.8137 19.658 99.2206 25.6938 98.6607 33.848C97.4086 52.068 96.7206 75.564 96.7206 100C96.7206 124.436 97.4086 147.932 98.6606 166.152Z" fill="#FFFFFF"/>
</g>
  <rect x="320" y="320" width="320" height="320" fill="#121212"/>
  <g transform="translate(320,320) scale(1.6) rotate(270,100,100)"><path xmlns="http://www.w3.org/2000/svg" d="M0.0,200.0 A40.0,40.0 0 1,0 80.0,200.0 A40.0,40.0 0 1,0 0.0,200.0 Z M80.0,200.0 A40.0,40.0 0 1,0 160.0,200.0 A40.0,40.0 0 1,0 80.0,200.0 Z M160.0120,120.9816 L160.0482,121.9627 L160.1084,122.9426 L160.1926,123.9207 L160.3008,124.8964 L160.4329,125.8692 L160.5889,126.8385 L160.7686,127.8036 L160.9719,128.7640 L161.1987,129.7192 L161.4490,130.6685 L161.7224,131.6114 L162.0189,132.5473 L162.3382,133.4756 L162.6803,134.3958 L163.0448,135.3073 L163.4316,136.2097 L163.8404,137.1022 L164.2710,137.9845 L164.7231,138.8559 L165.1965,139.7159 L165.6909,140.5641 L166.2059,141.3999 L166.7412,142.2228 L167.2966,143.0323 L167.8717,143.8280 L168.4661,144.6093 L169.0796,145.3757 L169.7116,146.1269 L170.3620,146.8624 L171.0301,147.5816 L171.7157,148.2843 L172.4184,148.9699 L173.1376,149.6380 L173.8731,150.2884 L174.6243,150.9204 L175.3907,151.5339 L176.1720,152.1283 L176.9677,152.7034 L177.7772,153.2588 L178.6001,153.7941 L179.4359,154.3091 L180.2841,154.8035 L181.1441,155.2769 L182.0155,155.7290 L182.8978,156.1596 L183.7903,156.5684 L184.6927,156.9552 L185.6042,157.3197 L186.5244,157.6618 L187.4527,157.9811 L188.3886,158.2776 L189.3315,158.5510 L190.2808,158.8013 L191.2360,159.0281 L192.1964,159.2314 L193.1615,159.4111 L194.1308,159.5671 L195.1036,159.6992 L196.0793,159.8074 L197.0574,159.8916 L198.0373,159.9518 L199.0184,159.9880 L200.0000,160.0000 L200.0000,80.0000 L199.0184,80.0120 L198.0373,80.0482 L197.0574,80.1084 L196.0793,80.1926 L195.1036,80.3008 L194.1308,80.4329 L193.1615,80.5889 L192.1964,80.7686 L191.2360,80.9719 L190.2808,81.1987 L189.3315,81.4490 L188.3886,81.7224 L187.4527,82.0189 L186.5244,82.3382 L185.6042,82.6803 L184.6927,83.0448 L183.7903,83.4316 L182.8978,83.8404 L182.0155,84.2710 L181.1441,84.7231 L180.2841,85.1965 L179.4359,85.6909 L178.6001,86.2059 L177.7772,86.7412 L176.9677,87.2966 L176.1720,87.8717 L175.3907,88.4661 L174.6243,89.0796 L173.8731,89.7116 L173.1376,90.3620 L172.4184,91.0301 L171.7157,91.7157 L171.0301,92.4184 L170.3620,93.1376 L169.7116,93.8731 L169.0796,94.6243 L168.4661,95.3907 L167.8717,96.1720 L167.2966,96.9677 L166.7412,97.7772 L166.2059,98.6001 L165.6909,99.4359 L165.1965,100.2841 L164.7231,101.1441 L164.2710,102.0155 L163.8404,102.8978 L163.4316,103.7903 L163.0448,104.6927 L162.6803,105.6042 L162.3382,106.5244 L162.0189,107.4527 L161.7224,108.3886 L161.4490,109.3315 L161.1987,110.2808 L160.9719,111.2360 L160.7686,112.1964 L160.5889,113.1615 L160.4329,114.1308 L160.3008,115.1036 L160.1926,116.0793 L160.1084,117.0574 L160.0482,118.0373 L160.0120,119.0184 L160.0000,120.0000 Z M160.0120,40.9816 L160.0482,41.9627 L160.1084,42.9426 L160.1926,43.9207 L160.3008,44.8964 L160.4329,45.8692 L160.5889,46.8385 L160.7686,47.8036 L160.9719,48.7640 L161.1987,49.7192 L161.4490,50.6685 L161.7224,51.6114 L162.0189,52.5473 L162.3382,53.4756 L162.6803,54.3958 L163.0448,55.3073 L163.4316,56.2097 L163.8404,57.1022 L164.2710,57.9845 L164.7231,58.8559 L165.1965,59.7159 L165.6909,60.5641 L166.2059,61.3999 L166.7412,62.2228 L167.2966,63.0323 L167.8717,63.8280 L168.4661,64.6093 L169.0796,65.3757 L169.7116,66.1269 L170.3620,66.8624 L171.0301,67.5816 L171.7157,68.2843 L172.4184,68.9699 L173.1376,69.6380 L173.8731,70.2884 L174.6243,70.9204 L175.3907,71.5339 L176.1720,72.1283 L176.9677,72.7034 L177.7772,73.2588 L178.6001,73.7941 L179.4359,74.3091 L180.2841,74.8035 L181.1441,75.2769 L182.0155,75.7290 L182.8978,76.1596 L183.7903,76.5684 L184.6927,76.9552 L185.6042,77.3197 L186.5244,77.6618 L187.4527,77.9811 L188.3886,78.2776 L189.3315,78.5510 L190.2808,78.8013 L191.2360,79.0281 L192.1964,79.2314 L193.1615,79.4111 L194.1308,79.5671 L195.1036,79.6992 L196.0793,79.8074 L197.0574,79.8916 L198.0373,79.9518 L199.0184,79.9880 L200.0000,80.0000 L200.0000,0.0000 L199.0184,0.0120 L198.0373,0.0482 L197.0574,0.1084 L196.0793,0.1926 L195.1036,0.3008 L194.1308,0.4329 L193.1615,0.5889 L192.1964,0.7686 L191.2360,0.9719 L190.2808,1.1987 L189.3315,1.4490 L188.3886,1.7224 L187.4527,2.0189 L186.5244,2.3382 L185.6042,2.6803 L184.6927,3.0448 L183.7903,3.4316 L182.8978,3.8404 L182.0155,4.2710 L181.1441,4.7231 L180.2841,5.1965 L179.4359,5.6909 L178.6001,6.2059 L177.7772,6.7412 L176.9677,7.2966 L176.1720,7.8717 L175.3907,8.4661 L174.6243,9.0796 L173.8731,9.7116 L173.1376,10.3620 L172.4184,11.0301 L171.7157,11.7157 L171.0301,12.4184 L170.3620,13.1376 L169.7116,13.8731 L169.0796,14.6243 L168.4661,15.3907 L167.8717,16.1720 L167.2966,16.9677 L166.7412,17.7772 L166.2059,18.6001 L165.6909,19.4359 L165.1965,20.2841 L164.7231,21.1441 L164.2710,22.0155 L163.8404,22.8978 L163.4316,23.7903 L163.0448,24.6927 L162.6803,25.6042 L162.3382,26.5244 L162.0189,27.4527 L161.7224,28.3886 L161.4490,29.3315 L161.1987,30.2808 L160.9719,31.2360 L160.7686,32.1964 L160.5889,33.1615 L160.4329,34.1308 L160.3008,35.1036 L160.1926,36.0793 L160.1084,37.0574 L160.0482,38.0373 L160.0120,39.0184 L160.0000,40.0000 L160.0000,40.0000 Z M199.0184,160.0120 L198.0373,160.0482 L197.0574,160.1084 L196.0793,160.1926 L195.1036,160.3008 L194.1308,160.4329 L193.1615,160.5889 L192.1964,160.7686 L191.2360,160.9719 L190.2808,161.1987 L189.3315,161.4490 L188.3886,161.7224 L187.4527,162.0189 L186.5244,162.3382 L185.6042,162.6803 L184.6927,163.0448 L183.7903,163.4316 L182.8978,163.8404 L182.0155,164.2710 L181.1441,164.7231 L180.2841,165.1965 L179.4359,165.6909 L178.6001,166.2059 L177.7772,166.7412 L176.9677,167.2966 L176.1720,167.8717 L175.3907,168.4661 L174.6243,169.0796 L173.8731,169.7116 L173.1376,170.3620 L172.4184,171.0301 L171.7157,171.7157 L171.0301,172.4184 L170.3620,173.1376 L169.7116,173.8731 L169.0796,174.6243 L168.4661,175.3907 L167.8717,176.1720 L167.2966,176.9677 L166.7412,177.7772 L166.2059,178.6001 L165.6909,179.4359 L165.1965,180.2841 L164.7231,181.1441 L164.2710,182.0155 L163.8404,182.8978 L163.4316,183.7903 L163.0448,184.6927 L162.6803,185.6042 L162.3382,186.5244 L162.0189,187.4527 L161.7224,188.3886 L161.4490,189.3315 L161.1987,190.2808 L160.9719,191.2360 L160.7686,192.1964 L160.5889,193.1615 L160.4329,194.1308 L160.3008,195.1036 L160.1926,196.0793 L160.1084,197.0574 L160.0482,198.0373 L160.0120,199.0184 L160.0000,200.0000 L200.0000,200.0000 L200.0000,160.0000 Z" fill="#FFFFFF"/>
</g>
  <rect x="640" y="320" width="320" height="320" fill="#121212"/>
  <g transform="translate(640,320) scale(1.6)"><path xmlns="http://www.w3.org/2000/svg" d="M0.0,0.0 L200.0,0.0 L200.0,200.0 L0.0,200.0 Z M200 1.5299e-05L125 8.74228e-06C125 23.9875 136.261 45.3448 153.785 59.0736C155.31 60.2684 154.568 62.8436 152.631 62.9089C142.53 63.2496 131.501 63.375 122.484 63.4775C121.637 63.4871 120.809 63.4965 120 63.5059C90.0001 63.5059 90 69.4999 90 71.9999C90 72.0173 90.0053 72.0343 90.0158 72.0512C90.0053 72.068 90 72.0851 90 72.1023C90 74.5826 90.0001 80.5294 120 80.5294C120.809 80.5387 121.637 80.5481 122.484 80.5576C145.591 80.8182 181.9 81.2276 182 84.9999H200V75L200 71.9999V59L200 1.5299e-05Z M182 177C181.899 183.727 145.591 184.457 122.484 184.922C121.637 184.939 120.809 184.955 120 184.972C90.0001 184.972 90 200 90 200H200V177H182Z M182 131C181.899 137.727 145.591 138.457 122.484 138.922C121.637 138.939 120.809 138.955 120 138.972C90.0001 138.972 90 154 90 154H200V131H182Z M182 85C181.899 91.727 145.591 92.4571 122.484 92.9218C121.637 92.9388 120.809 92.9555 120 92.9721C90.0001 92.9721 90 108 90 108H200V85H182Z M182 131C181.899 124.273 145.591 123.543 122.484 123.078C121.637 123.061 120.809 123.045 120 123.028C90.0001 123.028 90 108 90 108H200V131H182Z M182 177C181.899 170.273 145.591 169.543 122.484 169.078C121.637 169.061 120.809 169.045 120 169.028C90.0001 169.028 90 154 90 154H200V177H182Z M200 2.18557e-06C200 82.8427 200 150 200 150C117.157 150 50 82.8427 50 8.74228e-06C50 8.74228e-06 117.157 5.80674e-06 200 2.18557e-06Z" fill="#FFFFFF" fill-rule="evenodd"/>
</g>
  <rect x="960" y="320" width="320" height="320" fill="#121212"/>
  <g transform="translate(960,320) scale(1.6) rotate(90,100,100)"><path xmlns="http://www.w3.org/2000/svg" d="M180 8.74228e-06L200 8.74228e-06L200 200L169.424 200L33.0827 200L1.52588e-05 200C1.60555e-05 181.775 14.8116 167 33.0827 167C23.6704 167 16.0401 159.613 16.0401 150.5C16.0401 141.387 23.6703 134 33.0827 134C51.9803 134 67.7871 140.458 82.6637 146.536C110.204 157.787 145.132 168.736 180 134C180 134 180 118.225 180 99.9999C180 81.7745 180 66.9999 180 66.9999C180 66.9999 180 31.5015 180 13L180 8.74228e-06Z M140.0120,120.9816 L140.0482,121.9627 L140.1084,122.9426 L140.1926,123.9207 L140.3008,124.8964 L140.4329,125.8692 L140.5889,126.8385 L140.7686,127.8036 L140.9719,128.7640 L141.1987,129.7192 L141.4490,130.6685 L141.7224,131.6114 L142.0189,132.5473 L142.3382,133.4756 L142.6803,134.3958 L143.0448,135.3073 L143.4316,136.2097 L143.8404,137.1022 L144.2710,137.9845 L144.7231,138.8559 L145.1965,139.7159 L145.6909,140.5641 L146.2059,141.3999 L146.7412,142.2228 L147.2966,143.0323 L147.8717,143.8280 L148.4661,144.6093 L149.0796,145.3757 L149.7116,146.1269 L150.3620,146.8624 L151.0301,147.5816 L151.7157,148.2843 L152.4184,148.9699 L153.1376,149.6380 L153.8731,150.2884 L154.6243,150.9204 L155.3907,151.5339 L156.1720,152.1283 L156.9677,152.7034 L157.7772,153.2588 L158.6001,153.7941 L159.4359,154.3091 L160.2841,154.8035 L161.1441,155.2769 L162.0155,155.7290 L162.8978,156.1596 L163.7903,156.5684 L164.6927,156.9552 L165.6042,157.3197 L166.5244,157.6618 L167.4527,157.9811 L168.3886,158.2776 L169.3315,158.5510 L170.2808,158.8013 L171.2360,159.0281 L172.1964,159.2314 L173.1615,159.4111 L174.1308,159.5671 L175.1036,159.6992 L176.0793,159.8074 L177.0574,159.8916 L178.0373,159.9518 L179.0184,159.9880 L180.0000,160.0000 L180.9816,159.9880 L181.9627,159.9518 L182.9426,159.8916 L183.9207,159.8074 L184.8964,159.6992 L185.8692,159.5671 L186.8385,159.4111 L187.8036,159.2314 L188.7640,159.0281 L189.7192,158.8013 L190.6685,158.5510 L191.6114,158.2776 L192.5473,157.9811 L193.4756,157.6618 L194.3958,157.3197 L195.3073,156.9552 L196.2097,156.5684 L197.1022,156.1596 L197.9845,155.7290 L198.8559,155.2769 L199.7159,154.8035 L200.0000,154.6379 L200.0000,85.3621 L199.7159,85.1965 L198.8559,84.7231 L197.9845,84.2710 L197.1022,83.8404 L196.2097,83.4316 L195.3073,83.0448 L194.3958,82.6803 L193.4756,82.3382 L192.5473,82.0189 L191.6114,81.7224 L190.6685,81.4490 L189.7192,81.1987 L188.7640,80.9719 L187.8036,80.7686 L186.8385,80.5889 L185.8692,80.4329 L184.8964,80.3008 L183.9207,80.1926 L182.9426,80.1084 L181.9627,80.0482 L180.9816,80.0120 L180.0000,80.0000 L179.0184,80.0120 L178.0373,80.0482 L177.0574,80.1084 L176.0793,80.1926 L175.1036,80.3008 L174.1308,80.4329 L173.1615,80.5889 L172.1964,80.7686 L171.2360,80.9719 L170.2808,81.1987 L169.3315,81.4490 L168.3886,81.7224 L167.4527,82.0189 L166.5244,82.3382 L165.6042,82.6803 L164.6927,83.0448 L163.7903,83.4316 L162.8978,83.8404 L162.0155,84.2710 L161.1441,84.7231 L160.2841,85.1965 L159.4359,85.6909 L158.6001,86.2059 L157.7772,86.7412 L156.9677,87.2966 L156.1720,87.8717 L155.3907,88.4661 L154.6243,89.0796 L153.8731,89.7116 L153.1376,90.3620 L152.4184,91.0301 L151.7157,91.7157 L151.0301,92.4184 L150.3620,93.1376 L149.7116,93.8731 L149.0796,94.6243 L148.4661,95.3907 L147.8717,96.1720 L147.2966,96.9677 L146.7412,97.7772 L146.2059,98.6001 L145.6909,99.4359 L145.1965,100.2841 L144.7231,101.1441 L144.2710,102.0155 L143.8404,102.8978 L143.4316,103.7903 L143.0448,104.6927 L142.6803,105.6042 L142.3382,106.5244 L142.0189,107.4527 L141.7224,108.3886 L141.4490,109.3315 L141.1987,110.2808 L140.9719,111.2360 L140.7686,112.1964 L140.5889,113.1615 L140.4329,114.1308 L140.3008,115.1036 L140.1926,116.0793 L140.1084,117.0574 L140.0482,118.0373 L140.0120,119.0184 L140.0000,120.0000 Z M140.0120,40.9816 L140.0482,41.9627 L140.1084,42.9426 L140.1926,43.9207 L140.3008,44.8964 L140.4329,45.8692 L140.5889,46.8385 L140.7686,47.8036 L140.9719,48.7640 L141.1987,49.7192 L141.4490,50.6685 L141.7224,51.6114 L142.0189,52.5473 L142.3382,53.4756 L142.6803,54.3958 L143.0448,55.3073 L143.4316,56.2097 L143.8404,57.1022 L144.2710,57.9845 L144.7231,58.8559 L145.1965,59.7159 L145.6909,60.5641 L146.2059,61.3999 L146.7412,62.2228 L147.2966,63.0323 L147.8717,63.8280 L148.4661,64.6093 L149.0796,65.3757 L149.7116,66.1269 L150.3620,66.8624 L151.0301,67.5816 L151.7157,68.2843 L152.4184,68.9699 L153.1376,69.6380 L153.8731,70.2884 L154.6243,70.9204 L155.3907,71.5339 L156.1720,72.1283 L156.9677,72.7034 L157.7772,73.2588 L158.6001,73.7941 L159.4359,74.3091 L160.2841,74.8035 L161.1441,75.2769 L162.0155,75.7290 L162.8978,76.1596 L163.7903,76.5684 L164.6927,76.9552 L165.6042,77.3197 L166.5244,77.6618 L167.4527,77.9811 L168.3886,78.2776 L169.3315,78.5510 L170.2808,78.8013 L171.2360,79.0281 L172.1964,79.2314 L173.1615,79.4111 L174.1308,79.5671 L175.1036,79.6992 L176.0793,79.8074 L177.0574,79.8916 L178.0373,79.9518 L179.0184,79.9880 L180.0000,80.0000 L180.9816,79.9880 L181.9627,79.9518 L182.9426,79.8916 L183.9207,79.8074 L184.8964,79.6992 L185.8692,79.5671 L186.8385,79.4111 L187.8036,79.2314 L188.7640,79.0281 L189.7192,78.8013 L190.6685,78.5510 L191.6114,78.2776 L192.5473,77.9811 L193.4756,77.6618 L194.3958,77.3197 L195.3073,76.9552 L196.2097,76.5684 L197.1022,76.1596 L197.9845,75.7290 L198.8559,75.2769 L199.7159,74.8035 L200.0000,74.6379 L200.0000,5.3621 L199.7159,5.1965 L198.8559,4.7231 L197.9845,4.2710 L197.1022,3.8404 L196.2097,3.4316 L195.3073,3.0448 L194.3958,2.6803 L193.4756,2.3382 L192.5473,2.0189 L191.6114,1.7224 L190.6685,1.4490 L189.7192,1.1987 L188.7640,0.9719 L187.8036,0.7686 L186.8385,0.5889 L185.8692,0.4329 L184.8964,0.3008 L183.9207,0.1926 L182.9426,0.1084 L181.9627,0.0482 L180.9816,0.0120 L180.0000,0.0000 L179.0184,0.0120 L178.0373,0.0482 L177.0574,0.1084 L176.0793,0.1926 L175.1036,0.3008 L174.1308,0.4329 L173.1615,0.5889 L172.1964,0.7686 L171.2360,0.9719 L170.2808,1.1987 L169.3315,1.4490 L168.3886,1.7224 L167.4527,2.0189 L166.5244,2.3382 L165.6042,2.6803 L164.6927,3.0448 L163.7903,3.4316 L162.8978,3.8404 L162.0155,4.2710 L161.1441,4.7231 L160.2841,5.1965 L159.4359,5.6909 L158.6001,6.2059 L157.7772,6.7412 L156.9677,7.2966 L156.1720,7.8717 L155.3907,8.4661 L154.6243,9.0796 L153.8731,9.7116 L153.1376,10.3620 L152.4184,11.0301 L151.7157,11.7157 L151.0301,12.4184 L150.3620,13.1376 L149.7116,13.8731 L149.0796,14.6243 L148.4661,15.3907 L147.8717,16.1720 L147.2966,16.9677 L146.7412,17.7772 L146.2059,18.6001 L145.6909,19.4359 L145.1965,20.2841 L144.7231,21.1441 L144.2710,22.0155 L143.8404,22.8978 L143.4316,23.7903 L143.0448,24.6927 L142.6803,25.6042 L142.3382,26.5244 L142.0189,27.4527 L141.7224,28.3886 L141.4490,29.3315 L141.1987,30.2808 L140.9719,31.2360 L140.7686,32.1964 L140.5889,33.1615 L140.4329,34.1308 L140.3008,35.1036 L140.1926,36.0793 L140.1084,37.0574 L140.0482,38.0373 L140.0120,39.0184 L140.0000,40.0000 L140.0000,40.0000 Z" fill="#FFFFFF"/>
</g>
  <rect x="1280" y="320" width="320" height="320" fill="#121212"/>
  <g transform="translate(1280,320) scale(1.6) rotate(180,100,100)"><path xmlns="http://www.w3.org/2000/svg" d="M200 200C144.772 200 8.74228e-06 200 8.74228e-06 200C8.74228e-06 144.772 44.7715 100 100 100C155.228 100 200 144.772 200 200Z M1.74846e-05 -8.74228e-06C55.2285 -3.91405e-06 200 8.74228e-06 200 8.74228e-06C200 55.2285 155.228 100 100 100C44.7715 100 1.26563e-05 55.2285 1.74846e-05 -8.74228e-06Z" fill="#FFFFFF"/>
</g>
  <rect x="1600" y="320" width="320" height="320" fill="#121212"/>
  <g transform="translate(1600,320) scale(1.6) rotate(270,100,100)"><path xmlns="http://www.w3.org/2000/svg" d="M0.0,200.0 A40.0,40.0 0 1,0 80.0,200.0 A40.0,40.0 0 1,0 0.0,200.0 Z M80.0,200.0 A40.0,40.0 0 1,0 160.0,200.0 A40.0,40.0 0 1,0 80.0,200.0 Z M160.0120,120.9816 L160.0482,121.9627 L160.1084,122.9426 L160.1926,123.9207 L160.3008,124.8964 L160.4329,125.8692 L160.5889,126.8385 L160.7686,127.8036 L160.9719,128.7640 L161.1987,129.7192 L161.4490,130.6685 L161.7224,131.6114 L162.0189,132.5473 L162.3382,133.4756 L162.6803,134.3958 L163.0448,135.3073 L163.4316,136.2097 L163.8404,137.1022 L164.2710,137.9845 L164.7231,138.8559 L165.1965,139.7159 L165.6909,140.5641 L166.2059,141.3999 L166.7412,142.2228 L167.2966,143.0323 L167.8717,143.8280 L168.4661,144.6093 L169.0796,145.3757 L169.7116,146.1269 L170.3620,146.8624 L171.0301,147.5816 L171.7157,148.2843 L172.4184,148.9699 L173.1376,149.6380 L173.8731,150.2884 L174.6243,150.9204 L175.3907,151.5339 L176.1720,152.1283 L176.9677,152.7034 L177.7772,153.2588 L178.6001,153.7941 L179.4359,154.3091 L180.2841,154.8035 L181.1441,155.2769 L182.0155,155.7290 L182.8978,156.1596 L183.7903,156.5684 L184.6927,156.9552 L185.6042,157.3197 L186.5244,157.6618 L187.4527,157.9811 L188.3886,158.2776 L189.3315,158.5510 L190.2808,158.8013 L191.2360,159.0281 L192.1964,159.2314 L193.1615,159.4111 L194.1308,159.5671 L195.1036,159.6992 L196.0793,159.8074 L197.0574,159.8916 L198.0373,159.9518 L199.0184,159.9880 L200.0000,160.0000 L200.0000,80.0000 L199.0184,80.0120 L198.0373,80.0482 L197.0574,80.1084 L196.0793,80.1926 L195.1036,80.3008 L194.1308,80.4329 L193.1615,80.5889 L192.1964,80.7686 L191.2360,80.9719 L190.2808,81.1987 L189.3315,81.4490 L188.3886,81.7224 L187.4527,82.0189 L186.5244,82.3382 L185.6042,82.6803 L184.6927,83.0448 L183.7903,83.4316 L182.8978,83.8404 L182.0155,84.2710 L181.1441,84.7231 L180.2841,85.1965 L179.4359,85.6909 L178.6001,86.2059 L177.7772,86.7412 L176.9677,87.2966 L176.1720,87.8717 L175.3907,88.4661 L174.6243,89.0796 L173.8731,89.7116 L173.1376,90.3620 L172.4184,91.0301 L171.7157,91.7157 L171.0301,92.4184 L170.3620,93.1376 L169.7116,93.8731 L169.0796,94.6243 L168.4661,95.3907 L167.8717,96.1720 L167.2966,96.9677 L166.7412,97.7772 L166.2059,98.6001 L165.6909,99.4359 L165.1965,100.2841 L164.7231,101.1441 L164.2710,102.0155 L163.8404,102.8978 L163.4316,103.7903 L163.0448,104.6927 L162.6803,105.6042 L162.3382,106.5244 L162.0189,107.4527 L161.7224,108.3886 L161.4490,109.3315 L161.1987,110.2808 L160.9719,111.2360 L160.7686,112.1964 L160.5889,113.1615 L160.4329,114.1308 L160.3008,115.1036 L160.1926,116.0793 L160.1084,117.0574 L160.0482,118.0373 L160.0120,119.0184 L160.0000,120.0000 Z M160.0120,40.9816 L160.0482,41.9627 L160.1084,42.9426 L160.1926,43.9207 L160.3008,44.8964 L160.4329,45.8692 L160.5889,46.8385 L160.7686,47.8036 L160.9719,48.7640 L161.1987,49.7192 L161.4490,50.6685 L161.7224,51.6114 L162.0189,52.5473 L162.3382,53.4756 L162.6803,54.3958 L163.0448,55.3073 L163.4316,56.2097 L163.8404,57.1022 L164.2710,57.9845 L164.7231,58.8559 L165.1965,59.7159 L165.6909,60.5641 L166.2059,61.3999 L166.7412,62.2228 L167.2966,63.0323 L167.8717,63.8280 L168.4661,64.6093 L169.0796,65.3757 L169.7116,66.1269 L170.3620,66.8624 L171.0301,67.5816 L171.7157,68.2843 L172.4184,68.9699 L173.1376,69.6380 L173.8731,70.2884 L174.6243,70.9204 L175.3907,71.5339 L176.1720,72.1283 L176.9677,72.7034 L177.7772,73.2588 L178.6001,73.7941 L179.4359,74.3091 L180.2841,74.8035 L181.1441,75.2769 L182.0155,75.7290 L182.8978,76.1596 L183.7903,76.5684 L184.6927,76.9552 L185.6042,77.3197 L186.5244,77.6618 L187.4527,77.9811 L188.3886,78.2776 L189.3315,78.5510 L190.2808,78.8013 L191.2360,79.0281 L192.1964,79.2314 L193.1615,79.4111 L194.1308,79.5671 L195.1036,79.6992 L196.0793,79.8074 L197.0574,79.8916 L198.0373,79.9518 L199.0184,79.9880 L200.0000,80.0000 L200.0000,0.0000 L199.0184,0.0120 L198.0373,0.0482 L197.0574,0.1084 L196.0793,0.1926 L195.1036,0.3008 L194.1308,0.4329 L193.1615,0.5889 L192.1964,0.7686 L191.2360,0.9719 L190.2808,1.1987 L189.3315,1.4490 L188.3886,1.7224 L187.4527,2.0189 L186.5244,2.3382 L185.6042,2.6803 L184.6927,3.0448 L183.7903,3.4316 L182.8978,3.8404 L182.0155,4.2710 L181.1441,4.7231 L180.2841,5.1965 L179.4359,5.6909 L178.6001,6.2059 L177.7772,6.7412 L176.9677,7.2966 L176.1720,7.8717 L175.3907,8.4661 L174.6243,9.0796 L173.8731,9.7116 L173.1376,10.3620 L172.4184,11.0301 L171.7157,11.7157 L171.0301,12.4184 L170.3620,13.1376 L169.7116,13.8731 L169.0796,14.6243 L168.4661,15.3907 L167.8717,16.1720 L167.2966,16.9677 L166.7412,17.7772 L166.2059,18.6001 L165.6909,19.4359 L165.1965,20.2841 L164.7231,21.1441 L164.2710,22.0155 L163.8404,22.8978 L163.4316,23.7903 L163.0448,24.6927 L162.6803,25.6042 L162.3382,26.5244 L162.0189,27.4527 L161.7224,28.3886 L161.4490,29.3315 L161.1987,30.2808 L160.9719,31.2360 L160.7686,32.1964 L160.5889,33.1615 L160.4329,34.1308 L160.3008,35.1036 L160.1926,36.0793 L160.1084,37.0574 L160.0482,38.0373 L160.0120,39.0184 L160.0000,40.0000 L160.0000,40.0000 Z M199.0184,160.0120 L198.0373,160.0482 L197.0574,160.1084 L196.0793,160.1926 L195.1036,160.3008 L194.1308,160.4329 L193.1615,160.5889 L192.1964,160.7686 L191.2360,160.9719 L190.2808,161.1987 L189.3315,161.4490 L188.3886,161.7224 L187.4527,162.0189 L186.5244,162.3382 L185.6042,162.6803 L184.6927,163.0448 L183.7903,163.4316 L182.8978,163.8404 L182.0155,164.2710 L181.1441,164.7231 L180.2841,165.1965 L179.4359,165.6909 L178.6001,166.2059 L177.7772,166.7412 L176.9677,167.2966 L176.1720,167.8717 L175.3907,168.4661 L174.6243,169.0796 L173.8731,169.7116 L173.1376,170.3620 L172.4184,171.0301 L171.7157,171.7157 L171.0301,172.4184 L170.3620,173.1376 L169.7116,173.8731 L169.0796,174.6243 L168.4661,175.3907 L167.8717,176.1720 L167.2966,176.9677 L166.7412,177.7772 L166.2059,178.6001 L165.6909,179.4359 L165.1965,180.2841 L164.7231,181.1441 L164.2710,182.0155 L163.8404,182.8978 L163.4316,183.7903 L163.0448,184.6927 L162.6803,185.6042 L162.3382,186.5244 L162.0189,187.4527 L161.7224,188.3886 L161.4490,189.3315 L161.1987,190.2808 L160.9719,191.2360 L160.7686,192.1964 L160.5889,193.1615 L160.4329,194.1308 L160.3008,195.1036 L160.1926,196.0793 L160.1084,197.0574 L160.0482,198.0373 L160.0120,199.0184 L160.0000,200.0000 L200.0000,200.0000 L200.0000,160.0000 Z" fill="#FFFFFF"/>
</g>
  <rect x="0" y="640" width="320" height="320" fill="#121212"/>
  <g transform="translate(0,640) scale(1.6)"><path xmlns="http://www.w3.org/2000/svg" d="M200 0.0560087L0.0560085 2.44783e-09L0 200C110.425 200.032 199.968 110.512 200 0.0560087Z M45.0,65.0 A25.0,25.0 0 1,0 95.0,65.0 A25.0,25.0 0 1,0 45.0,65.0 Z M20.0,65.0 A50.0,25.0 0 1,0 120.0,65.0 A50.0,25.0 0 1,0 20.0,65.0 Z" fill="#FFFFFF" fill-rule="evenodd"/>
</g>
  <rect x="320" y="640" width="320" height="320" fill="#121212"/>
  <g transform="translate(320,640) scale(1.6) rotate(90,100,100)"><path xmlns="http://www.w3.org/2000/svg" d="M0.0,0.0 L200.0,0.0 L200.0,200.0 L0.0,200.0 Z M200 1.5299e-05L125 8.74228e-06C125 23.9875 136.261 45.3448 153.785 59.0736C155.31 60.2684 154.568 62.8436 152.631 62.9089C142.53 63.2496 131.501 63.375 122.484 63.4775C121.637 63.4871 120.809 63.4965 120 63.5059C90.0001 63.5059 90 69.4999 90 71.9999C90 72.0173 90.0053 72.0343 90.0158 72.0512C90.0053 72.068 90 72.0851 90 72.1023C90 74.5826 90.0001 80.5294 120 80.5294C120.809 80.5387 121.637 80.5481 122.484 80.5576C145.591 80.8182 181.9 81.2276 182 84.9999H200V75L200 71.9999V59L200 1.5299e-05Z M182 177C181.899 183.727 145.591 184.457 122.484 184.922C121.637 184.939 120.809 184.955 120 184.972C90.0001 184.972 90 200 90 200H200V177H182Z M182 131C181.899 137.727 145.591 138.457 122.484 138.922C121.637 138.939 120.809 138.955 120 138.972C90.0001 138.972 90 154 90 154H200V131H182Z M182 85C181.899 91.727 145.591 92.4571 122.484 92.9218C121.637 92.9388 120.809 92.9555 120 92.9721C90.0001 92.9721 90 108 90 108H200V85H182Z M182 131C181.899 124.273 145.591 123.543 122.484 123.078C121.637 123.061 120.809 123.045 120 123.028C90.0001 123.028 90 108 90 108H200V131H182Z M182 177C181.899 170.273 145.591 169.543 122.484 169.078C121.637 169.061 120.809 169.045 120 169.028C90.0001 169.028 90 154 90 154H200V177H182Z M200 2.18557e-06C200 82.8427 200 150 200 150C117.157 150 50 82.8427 50 8.74228e-06C50 8.74228e-06 117.157 5.80674e-06 200 2.18557e-06Z" fill="#FFFFFF" fill-rule="evenodd"/>
</g>
  <rect x="640" y="640" width="320" height="320" fill="#121212"/>
  <g transform="translate(640,640) scale(1.6) rotate(180,100,100)"><path xmlns="http://www.w3.org/2000/svg" d="M56.6891 150C58.8006 157.3 61.3602 164.017 64.2928 170L1.31134e-06 170L1.56959e-05 190L78.1794 190C84.7732 196.407 92.1768 200 100 200C127.614 200 150 155.228 150 100C150 44.7715 127.614 7.76377e-06 100 6.55671e-06C92.1768 6.21474e-06 84.7732 3.59343 78.1794 10L8.30516e-06 10L7.43094e-06 30L64.2928 30C61.3603 35.9829 58.8006 42.6998 56.6891 50L6.55671e-06 50L5.68248e-06 70L52.289 70C51.282 76.4124 50.5893 83.1031 50.2469 90L4.80825e-06 90L3.93402e-06 110L50.2469 110C50.5893 116.897 51.282 123.588 52.289 130L3.0598e-06 130L1.74444e-05 150L56.6891 150Z M66.66649999999998,100.0 A33.3333,33.3333 0 1,0 133.3331,100.0 A33.3333,33.3333 0 1,0 66.66649999999998,100.0 Z" fill="#FFFFFF" fill-rule="evenodd"/>
</g>
  <rect x="960" y="640" width="320" height="320" fill="#121212"/>
  <g transform="translate(960,640) scale(1.6) rotate(270,100,100)"><path xmlns="http://www.w3.org/2000/svg" d="M0.0,0.0 L200.0,0.0 L200.0,200.0 L0.0,200.0 Z M200 1.5299e-05L125 8.74228e-06C125 23.9875 136.261 45.3448 153.785 59.0736C155.31 60.2684 154.568 62.8436 152.631 62.9089C142.53 63.2496 131.501 63.375 122.484 63.4775C121.637 63.4871 120.809 63.4965 120 63.5059C90.0001 63.5059 90 69.4999 90 71.9999C90 72.0173 90.0053 72.0343 90.0158 72.0512C90.0053 72.068 90 72.0851 90 72.1023C90 74.5826 90.0001 80.5294 120 80.5294C120.809 80.5387 121.637 80.5481 122.484 80.5576C145.591 80.8182 181.9 81.2276 182 84.9999H200V75L200 71.9999V59L200 1.5299e-05Z M182 177C181.899 183.727 145.591 184.457 122.484 184.922C121.637 184.939 120.809 184.955 120 184.972C90.0001 184.972 90 200 90 200H200V177H182Z M182 131C181.899 137.727 145.591 138.457 122.484 138.922C121.637 138.939 120.809 138.955 120 138.972C90.0001 138.972 90 154 90 154H200V131H182Z M182 85C181.899 91.727 145.591 92.4571 122.484 92.9218C121.637 92.9388 120.809 92.9555 120 92.9721C90.0001 92.9721 90 108 90 108H200V85H182Z M182 131C181.899 124.273 145.591 123.543 122.484 123.078C121.637 123.061 120.809 123.045 120 123.028C90.0001 123.028 90 108 90 108H200V131H182Z M182 177C181.899 170.273 145.591 169.543 122.484 169.078C121.637 169.061 120.809 169.045 120 169.028C90.0001 169.028 90 154 90 154H200V177H182Z M200 2.18557e-06C200 82.8427 200 150 200 150C117.157 150 50 82.8427 50 8.74228e-06C50 8.74228e-06 117.157 5.80674e-06 200 2.18557e-06Z" fill="#FFFFFF" fill-rule="evenodd"/>
</g>
  <rect x="1280" y="640" width="320" height="320" fill="#FF4F00"/>
  <g transform="translate(1280,640) scale(1.6)"><path xmlns="http://www.w3.org/2000/svg" d="M101.046 0.0050954C100.849 0.00199645 100.652 0.000313685 100.455 5.32538e-05L100.449 2.23595e-05L100.444 4.03871e-05L100.401 1.74946e-05L100.358 3.94186e-05L100.349 3.83041e-05L100.309 5.70389e-05L100.305 3.83041e-05L100.302 5.223e-05L100.261 3.83041e-05L100.248 4.17448e-05L100.225 1.9927e-05C100.211 1.99258e-05 100.197 4.28125e-05 100.183 8.85747e-05C100.173 7.36736e-05 100.163 6.10756e-05 100.153 5.07809e-05C100.148 3.10244e-05 100.142 2.11437e-05 100.137 2.11432e-05L100.131 3.07249e-05C100.117 2.10955e-05 100.103 1.62796e-05 100.089 1.62783e-05C100.078 1.62774e-05 100.067 1.90319e-05 100.057 2.45413e-05C100.038 1.40118e-05 100.019 8.74498e-06 100 8.74228e-06L99.9354 2.91409e-05L99.9126 1.87108e-05C99.8861 1.87085e-05 99.8596 6.08214e-05 99.8331 0.000145018C44.6814 0.0902254 1.68803e-05 44.8271 8.74228e-06 100C2.63876e-06 155.168 44.6734 199.902 99.8183 200L99.8698 200L99.9126 200L99.9502 200L100 200H100L100.041 200L100.065 200C100.074 200 100.083 200 100.093 200C100.099 200 100.106 200 100.113 200L100.129 200C100.143 200 100.158 200 100.172 200L100.197 200L100.217 200L100.225 200H100.227L100.265 200L100.302 200L100.305 200L100.31 200L100.353 200L100.391 200H100.405L100.444 200L100.449 200L100.454 200C100.648 200 100.842 199.998 101.035 199.995L101.108 199.994L101.177 199.993C155.863 199.362 200 154.836 200 100C200 45.1514 155.842 0.616484 101.138 0.00635371C101.108 0.00591104 101.077 0.0054916 101.046 0.0050954ZM58.5705 15.6393C37.0635 33.3961 22.8006 64.5432 22.8006 100C22.8006 135.461 37.0685 166.611 58.581 184.367C31.6435 168.159 13.2 136.615 13.2 100C13.2 63.3897 31.6387 31.8492 58.5705 15.6393ZM133.023 14.2473C151.45 31.7377 163.777 63.5976 163.777 100C163.777 136.398 151.453 168.255 133.031 185.746C156.944 169.92 173.381 137.428 173.381 100C173.381 62.5673 156.941 30.071 133.023 14.2473ZM58.9686 31.436C63.8909 23.6709 69.5034 17.4135 75.6812 12.7998C60.6203 29.9415 50.4486 62.5693 50.4486 100C50.4486 137.45 60.6329 170.093 75.7069 187.227C69.5189 182.612 63.8977 176.348 58.9686 168.572C53.3646 159.732 48.9606 149.408 45.8726 137.892C42.6566 125.9 41.0286 113.152 41.0286 100.004C41.0286 86.856 42.6566 74.108 45.8726 62.116C48.9606 50.6 53.3646 40.276 58.9686 31.436ZM116.118 189.476C116.267 189.352 116.416 189.227 116.565 189.1C122.041 184.416 127.001 177.632 131.301 168.936C140.377 150.592 145.373 126.108 145.373 100C145.373 73.892 140.377 49.412 131.301 31.064C127.001 22.368 122.041 15.584 116.565 10.9C116.416 10.7727 116.267 10.6471 116.118 10.5233C127.774 26.9357 135.777 60.8393 135.777 100C135.777 139.16 127.775 173.063 116.118 189.476ZM78.4966 100C78.4966 58.862 83.8719 23.5254 91.5543 8.17257C90.8515 8.84517 90.1494 9.59846 89.4487 10.432C85.5807 15.036 81.9167 22.02 78.8567 30.628C72.2926 49.096 68.6767 73.732 68.6766 100C68.6766 126.268 72.2926 150.904 78.8566 169.372C81.9166 177.98 85.5806 184.964 89.4486 189.568C90.1494 190.402 90.8515 191.155 91.5543 191.827C83.8719 176.475 78.4966 141.138 78.4966 100ZM103.243 6.73626C106.13 21.2293 108.177 57.5219 108.177 100C108.177 142.476 106.13 178.767 103.243 193.262C105.554 189.943 108.669 183.072 111.529 169.864C115.557 151.248 117.777 126.436 117.777 100C117.777 73.564 115.557 48.752 111.529 30.136C108.67 16.9249 105.555 10.0537 103.243 6.73626ZM142.748 183.551C168.961 167.115 186.8 136.01 186.8 100C186.8 63.9853 168.956 32.8768 142.737 16.4426C163.71 34.3259 177.553 65.0719 177.553 100C177.553 134.924 163.715 165.666 142.748 183.551ZM68.6244 13.413C49.7034 30.7121 36.9766 63.0109 36.9766 100C36.9766 136.993 49.7063 169.295 68.6321 186.593C44.0104 171.1 26.9726 138.108 26.9726 100C26.9726 61.8967 44.0081 28.9082 68.6244 13.413ZM149.505 100C149.505 138.629 138.671 172.143 122.81 188.799C129.885 184.075 136.268 177.266 141.785 168.564C147.389 159.724 151.793 149.4 154.881 137.884C158.097 125.892 159.725 113.144 159.725 99.996C159.725 86.848 158.097 74.1 154.881 62.108C151.793 50.592 147.389 40.268 141.785 31.428C136.265 22.72 129.877 15.908 122.797 11.184L122.785 11.1761C138.658 27.8232 149.505 61.3514 149.505 100ZM84.7949 190.247C84.3243 189.882 83.8555 189.5 83.3886 189.1C77.9126 184.416 72.9526 177.632 68.6526 168.936C59.5766 150.588 54.5806 126.108 54.5806 100C54.5806 73.892 59.5766 49.408 68.6526 31.064C72.9526 22.368 77.9126 15.584 83.3886 10.9C83.855 10.5013 84.3233 10.1196 84.7934 9.75515C72.835 25.8609 64.5766 60.2178 64.5766 100C64.5766 139.784 72.8357 174.142 84.7949 190.247ZM110.905 189.568C110.204 190.402 109.502 191.155 108.799 191.827C116.481 176.475 121.857 141.138 121.857 100C121.857 58.862 116.481 23.5254 108.799 8.1726C109.502 8.8452 110.204 9.59849 110.905 10.432C114.773 15.036 118.437 22.02 121.497 30.628C128.061 49.096 131.677 73.732 131.677 100C131.677 126.268 128.061 150.904 121.497 169.372C118.437 177.98 114.773 184.964 110.905 189.568ZM97.6645 194.012C95.3134 191.035 91.9181 184.163 88.8246 169.864C84.7966 151.248 82.5766 126.436 82.5766 100C82.5766 73.564 84.7966 48.752 88.8246 30.136C91.9203 15.8397 95.314 8.96768 97.6642 5.98922C94.6964 19.9499 92.5766 56.772 92.5766 100C92.5766 143.23 94.6966 180.053 97.6645 194.012ZM160.667 174.405C179.166 156.098 190.8 129.546 190.8 100C190.8 70.4544 179.166 43.9015 160.667 25.595C182.231 43.199 196 69.9916 196 100C196 130.008 182.231 156.801 160.667 174.405ZM39.3331 174.405C20.8345 156.099 9.20003 129.546 9.20003 100C9.20003 70.4543 20.8346 43.9013 39.3333 25.5949C17.7687 43.1988 4.00001 69.9915 4.00001 100C4 130.008 17.7686 156.801 39.3331 174.405ZM98.6606 166.152C99.2206 174.306 99.8174 180.342 100.377 184.799C100.94 180.342 101.533 174.306 102.093 166.152C103.345 147.932 104.033 124.436 104.033 100C104.033 75.564 103.345 52.068 102.093 33.848C101.533 25.6938 100.936 19.658 100.376 15.2009C99.8137 19.658 99.2206 25.6938 98.6607 33.848C97.4086 52.068 96.7206 75.564 96.7206 100C96.7206 124.436 97.4086 147.932 98.6606 166.152Z" fill="#FFFFFF"/>
</g>
  <rect x="1600" y="640" width="320" height="320" fill="#121212"/>
  <g transform="translate(1600,640) scale(1.6) rotate(90,100,100)"><path xmlns="http://www.w3.org/2000/svg" d="M0.0,0.0 L200.0,0.0 L200.0,200.0 L0.0,200.0 Z M200 1.5299e-05L125 8.74228e-06C125 23.9875 136.261 45.3448 153.785 59.0736C155.31 60.2684 154.568 62.8436 152.631 62.9089C142.53 63.2496 131.501 63.375 122.484 63.4775C121.637 63.4871 120.809 63.4965 120 63.5059C90.0001 63.5059 90 69.4999 90 71.9999C90 72.0173 90.0053 72.0343 90.0158 72.0512C90.0053 72.068 90 72.0851 90 72.1023C90 74.5826 90.0001 80.5294 120 80.5294C120.809 80.5387 121.637 80.5481 122.484 80.5576C145.591 80.8182 181.9 81.2276 182 84.9999H200V75L200 71.9999V59L200 1.5299e-05Z M182 177C181.899 183.727 145.591 184.457 122.484 184.922C121.637 184.939 120.809 184.955 120 184.972C90.0001 184.972 90 200 90 200H200V177H182Z M182 131C181.899 137.727 145.591 138.457 122.484 138.922C121.637 138.939 120.809 138.955 120 138.972C90.0001 138.972 90 154 90 154H200V131H182Z M182 85C181.899 91.727 145.591 92.4571 122.484 92.9218C121.637 92.9388 120.809 92.9555 120 92.9721C90.0001 92.9721 90 108 90 108H200V85H182Z M182 131C181.899 124.273 145.591 123.543 122.484 123.078C121.637 123.061 120.809 123.045 120 123.028C90.0001 123.028 90 108 90 108H200V131H182Z M182 177C181.899 170.273 145.591 169.543 122.484 169.078C121.637 169.061 120.809 169.045 120 169.028C90.0001 169.028 90 154 90 154H200V177H182Z M200 2.18557e-06C200 82.8427 200 150 200 150C117.157 150 50 82.8427 50 8.74228e-06C50 8.74228e-06 117.157 5.80674e-06 200 2.18557e-06Z" fill="#FFFFFF" fill-rule="evenodd"/>
</g>
</svg>
