<?xml version='1.0' encoding='UTF-8'?>
<svg xmlns="http://www.w3.org/2000/svg" version="1.1" width="1920" height="960" viewBox="0 0 1920 960">
  <rect x="0" y="0" width="320" height="320" fill="#121212"/>
  <g transform="translate(0,0) scale(1.6)"><path xmlns="http://www.w3.org/2000/svg" d="M100 2.18557e-05L100 150L2.13312e-05 200L3.49691e-05 -6.51651e-06L100 2.18557e-05Z" fill="#FF4F00"/>
</g>
  <rect x="320" y="0" width="320" height="320" fill="#FFFFFF"/>
  <g transform="translate(320,0) scale(1.6) rotate(90,100,100)"><path xmlns="http://www.w3.org/2000/svg" d="M128.1730,143.4165 L127.7647,142.3380 L127.3432,141.2687 L126.9087,140.2085 L126.4613,139.1575 L126.0012,138.1157 L125.5283,137.0833 L125.0430,136.0602 L124.5452,135.0465 L124.0352,134.0423 L123.5131,133.0477 L122.9790,132.0626 L122.4330,131.0871 L121.8752,130.1214 L121.3059,129.1653 L120.7250,128.2191 L120.1329,127.2827 L119.5294,126.3562 L118.9149,125.4397 L118.2894,124.5331 L117.6531,123.6367 L117.0061,122.7503 L116.3485,121.8741 L115.6804,121.0081 L115.0021,120.1524 L114.3135,119.3071 L113.6149,118.4721 L112.9063,117.6475 L112.1880,116.8335 L111.4599,116.0299 L110.7224,115.2370 L109.9754,114.4548 L109.2191,113.6832 L108.4537,112.9224 L107.6792,112.1724 L106.8959,111.4332 L106.1037,110.7050 L105.3030,109.9878 L104.4937,109.2815 L103.6761,108.5864 L102.8502,107.9024 L102.0162,107.2296 L101.1742,106.5680 L100.3243,105.9177 L99.4667,105.2787 L98.6015,104.6512 L97.7288,104.0351 L96.8488,103.4305 L95.9615,102.8375 L95.0672,102.2561 L94.1659,101.6864 L93.2578,101.1284 L92.3430,100.5821 L91.4216,100.0477 L90.4938,99.5252 L89.5597,99.0146 L88.6194,98.5160 L87.6730,98.0294 L86.7207,97.5550 L85.7626,97.0927 L84.7989,96.6426 L83.8296,96.2047 L82.8550,95.7792 L81.8750,95.3660 L80.8899,94.9652 L79.8998,94.5770 L78.9048,94.2012 L77.9050,93.8380 L76.9006,93.4875 L75.8917,93.1497 L74.8785,92.8245 L73.8610,92.5122 L72.8394,92.2128 L71.8138,91.9262 L70.7843,91.6526 L69.7512,91.3920 L68.7144,91.1444 L67.6742,90.9100 L66.6306,90.6888 L65.5839,90.4807 L64.5340,90.2860 L63.4812,90.1045 L62.4256,89.9365 L61.3673,89.7819 L60.3065,89.6408 L59.2432,89.5132 L58.1776,89.3992 L57.1098,89.2989 L56.0400,89.2123 L54.9683,89.1394 L53.8948,89.0804 L52.8197,89.0352 L51.7430,89.0040 L50.6649,88.9867 L49.5856,88.9834 L48.5051,88.9943 L47.4236,89.0192 L46.3413,89.0584 L45.2582,89.1117 L44.1745,89.1794 L43.0903,89.2615 L42.0057,89.3579 L40.9209,89.4688 L39.8360,89.5942 L38.7511,89.7341 L37.6664,89.8887 L36.5819,90.0580 L35.4979,90.2419 L34.4144,90.4407 L33.3316,90.6543 L32.2496,90.8828 L31.1686,91.1262 L30.0886,91.3846 L29.0098,91.6580 L27.9323,91.9465 L26.8562,92.2502 L25.7818,92.5691 L24.7090,92.9033 L23.6381,93.2528 L22.5692,93.6176 L21.5023,93.9979 L20.4377,94.3936 L19.3755,94.8049 L18.3157,95.2317 L17.2585,95.6742 L16.2041,96.1324 L15.1525,96.6063 L14.1040,97.0960 L14.1040,97.0960 L12.4411,97.8665 L10.7774,98.5978 L9.1133,99.2903 L7.4489,99.9443 L5.7847,100.5602 L4.1210,101.1382 L2.4580,101.6787 L0.7961,102.1819 L0.0000,102.4055 L0.0000,200.0000 L3.1250,200.0000 L6.2500,200.0000 L9.3750,200.0000 L12.5000,200.0000 L15.6250,200.0000 L18.7500,200.0000 L21.8750,200.0000 L25.0000,200.0000 L28.1250,200.0000 L31.2500,200.0000 L34.3750,200.0000 L37.5000,200.0000 L40.6250,200.0000 L43.7500,200.0000 L46.8750,200.0000 L50.0000,200.0000 L53.1250,200.0000 L56.2500,200.0000 L59.3750,200.0000 L62.5000,200.0000 L65.6250,200.0000 L68.7500,200.0000 L71.8750,200.0000 L75.0000,200.0000 L78.1250,200.0000 L81.2500,200.0000 L84.3750,200.0000 L87.5000,200.0000 L90.6250,200.0000 L93.7500,200.0000 L96.8750,200.0000 L100.0000,200.0000 L103.1250,200.0000 L106.2500,200.0000 L109.3750,200.0000 L112.5000,200.0000 L115.6250,200.0000 L118.7500,200.0000 L121.8750,200.0000 L125.0000,200.0000 L128.1250,200.0000 L131.2500,200.0000 L134.3750,200.0000 L137.5000,200.0000 L140.6250,200.0000 L143.7500,200.0000 L146.8750,200.0000 L150.0000,200.0000 L153.1250,200.0000 L156.2500,200.0000 L159.3750,200.0000 L162.5000,200.0000 L165.6250,200.0000 L168.7500,200.0000 L171.8750,200.0000 L175.0000,200.0000 L178.1250,200.0000 L181.2500,200.0000 L184.3750,200.0000 L187.5000,200.0000 L190.6250,200.0000 L193.7500,200.0000 L196.8750,200.0000 L200.0000,200.0000 L200.0000,199.9976 L200.0000,199.9951 L200.0000,199.9927 L200.0000,199.9903 L200.0000,199.9878 L200.0000,199.9854 L200.0000,199.9829 L200.0000,199.9805 L200.0000,199.9781 L200.0000,199.9756 L200.0000,199.9732 L200.0000,199.9708 L200.0000,199.9683 L200.0000,199.9659 L200.0000,199.9634 L200.0000,199.9610 L200.0000,199.9586 L200.0000,199.9561 L200.0000,199.9537 L200.0000,199.9512 L200.0000,199.9488 L200.0000,199.9464 L200.0000,199.9439 L200.0000,199.9415 L200.0000,199.9391 L200.0000,199.9366 L200.0000,199.9342 L200.0000,199.9317 L200.0000,199.9293 L200.0000,199.9269 L200.0000,199.9244 L200.0000,199.9220 L200.0000,199.9196 L200.0000,199.9171 L200.0000,199.9147 L200.0000,199.9123 L200.0000,199.9098 L200.0000,199.9074 L200.0000,199.9049 L200.0000,199.9025 L200.0000,199.9001 L200.0000,199.8976 L200.0000,199.8952 L200.0000,199.8928 L200.0000,199.8903 L200.0000,199.8879 L200.0000,199.8854 L200.0000,199.8830 L200.0000,199.8806 L200.0000,199.8781 L200.0000,199.8757 L200.0000,199.8732 L200.0000,199.8708 L200.0000,199.8684 L200.0000,199.8659 L200.0000,199.8635 L200.0000,199.8611 L200.0000,199.8586 L200.0000,199.8562 L200.0000,199.8537 L200.0000,199.8513 L200.0000,199.8489 L200.0000,199.8464 L200.0000,199.8440 L200.0000,199.8416 L200.0000,199.8391 L200.0000,199.8367 L200.0000,199.8342 L200.0000,199.8318 L200.0000,199.8294 L200.0000,199.8269 L200.0000,199.8245 L200.0000,199.8221 L200.0000,199.8196 L200.0000,199.8172 L200.0000,199.8148 L200.0000,199.8123 L200.0000,199.8099 L200.0000,199.8074 L200.0000,199.8050 L200.0000,199.8026 L200.0000,199.8001 L200.0000,199.7977 L200.0000,199.7952 L200.0000,199.7928 L200.0000,199.7904 L200.0000,199.7879 L200.0000,199.7855 L200.0000,199.7831 L200.0000,199.7806 L200.0000,199.7782 L200.0000,199.7757 L200.0000,199.7733 L200.0000,199.7709 L200.0000,199.7684 L200.0000,199.7660 L200.0000,199.7636 L200.0000,199.7611 L200.0000,199.7587 L200.0000,199.7562 L200.0000,199.7538 L200.0000,199.7514 L200.0000,199.7489 L200.0000,199.7465 L200.0000,199.7441 L200.0000,199.7416 L200.0000,199.7392 L200.0000,199.7368 L200.0000,199.7343 L200.0000,199.7319 L200.0000,199.7294 L200.0000,199.7270 L200.0000,199.7246 L200.0000,199.7221 L200.0000,199.7197 L200.0000,199.7172 L200.0000,199.7148 L200.0000,199.7124 L200.0000,199.7099 L200.0000,199.7075 L200.0000,199.7051 L200.0000,199.7026 L200.0000,199.7002 L200.0000,199.6977 L200.0000,199.6953 L200.0000,199.6929 L200.0000,199.6904 L200.0000,199.6880 L199.2915,199.6260 L198.5835,199.5583 L197.8760,199.4847 L197.1691,199.4053 L196.4629,199.3201 L195.7573,199.2290 L195.0524,199.1322 L194.3483,199.0296 L193.6451,198.9211 L192.9426,198.8069 L192.2411,198.6868 L191.5405,198.5609 L190.8409,198.4292 L190.1424,198.2917 L189.4449,198.1484 L188.7485,197.9993 L188.0533,197.8444 L187.3594,197.6836 L186.6666,197.5171 L185.9752,197.3447 L185.2851,197.1665 L184.5964,196.9825 L183.9092,196.7927 L183.2234,196.5971 L182.5391,196.3957 L181.8565,196.1885 L181.1754,195.9754 L180.4960,195.7566 L179.8182,195.5319 L179.1423,195.3014 L178.4681,195.0651 L177.7957,194.8230 L177.1253,194.5751 L176.4567,194.3213 L175.7902,194.0618 L175.1256,193.7964 L174.4631,193.5253 L173.8027,193.2483 L173.1444,192.9655 L172.4884,192.6769 L171.8346,192.3824 L171.1830,192.0822 L170.5338,191.7762 L169.8869,191.4643 L169.2425,191.1466 L168.6005,190.8231 L167.9610,190.4938 L167.3241,190.1587 L166.6898,189.8178 L166.0581,189.4710 L165.4290,189.1184 L164.8027,188.7601 L164.1792,188.3959 L163.5585,188.0259 L162.9406,187.6500 L162.3257,187.2684 L161.7137,186.8810 L161.1047,186.4877 L160.4987,186.0886 L159.8958,185.6837 L159.2961,185.2730 L158.6995,184.8565 L158.1061,184.4342 L157.5160,184.0060 L156.9292,183.5720 L156.3457,183.1322 L155.7657,182.6866 L155.1890,182.2352 L154.6159,181.7780 L154.0463,181.3149 L153.4802,180.8461 L152.9178,180.3714 L152.3590,179.8909 L151.8040,179.4046 L151.2527,178.9125 L150.7051,178.4145 L150.1615,177.9108 L149.6217,177.4012 L149.0858,176.8858 L148.5539,176.3646 L148.0260,175.8375 L147.5022,175.3047 L146.9825,174.7660 L146.4669,174.2215 L145.9556,173.6712 L145.4485,173.1151 L144.9456,172.5532 L144.4471,171.9854 L143.9530,171.4119 L143.4633,170.8325 L142.9780,170.2473 L142.4973,169.6563 L142.0211,169.0594 L141.5495,168.4568 L141.0825,167.8483 L140.6202,167.2340 L140.1627,166.6139 L139.7099,165.9880 L139.2620,165.3562 L138.8189,164.7186 L138.3807,164.0753 L137.9475,163.4260 L137.5193,162.7710 L137.0961,162.1102 L136.6780,161.4435 L136.2650,160.7710 L135.8572,160.0927 L135.4547,159.4086 L135.0574,158.7187 L134.6654,158.0229 L134.2787,157.3213 L133.8975,156.6139 L133.5217,155.9007 L133.1513,155.1817 L132.7866,154.4568 L132.4274,153.7261 L132.0738,152.9896 L131.7258,152.2473 L131.3836,151.4992 L131.0472,150.7452 L130.7165,149.9854 L130.3917,149.2198 L130.0728,148.4484 L129.7598,147.6712 L129.4527,146.8881 L129.1518,146.0992 L128.8568,145.3045 L128.5680,144.5040 Z" fill="#121212"/>
</g>
  <rect x="640" y="0" width="320" height="320" fill="#FFFFFF"/>
  <g transform="translate(640,0) scale(1.6) rotate(180,100,100)"><path xmlns="http://www.w3.org/2000/svg" d="M200 2.62268e-05L200 10L2.23802e-05 100L2.18557e-05 0L200 2.62268e-05Z" fill="#FFA300"/>
</g>
  <rect x="960" y="0" width="320" height="320" fill="#121212"/>
  <g transform="translate(960,0) scale(1.6) rotate(270,100,100)"><path xmlns="http://www.w3.org/2000/svg" d="M100 2.18557e-05L100 100L1.47744e-05 150L2.84124e-05 -6.51651e-06L100 2.18557e-05Z" fill="#FF4F00"/>
</g>
  <rect x="1280" y="0" width="320" height="320" fill="#FFFFFF"/>
  <g transform="translate(1280,0) scale(1.6)"><path xmlns="http://www.w3.org/2000/svg" d="M164.256 27.6135C155.966 50.9277 129.333 61.9603 106.979 51.3361C71.4878 34.4669 34.4629 71.4918 51.3361 106.979C61.9603 129.329 50.9277 155.962 27.6135 164.256C10.4602 170.357 1.25699 184.868 8.74228e-06 200H200V8.74228e-06C184.868 1.26099 170.357 10.4602 164.256 27.6135Z" fill="#FF4F00"/>
</g>
  <rect x="1600" y="0" width="320" height="320" fill="#F3F3F3"/>
  <g transform="translate(1600,0) scale(1.6) rotate(90,100,100)"><path xmlns="http://www.w3.org/2000/svg" d="M128.1730,143.4165 L127.7647,142.3380 L127.3432,141.2687 L126.9087,140.2085 L126.4613,139.1575 L126.0012,138.1157 L125.5283,137.0833 L125.0430,136.0602 L124.5452,135.0465 L124.0352,134.0423 L123.5131,133.0477 L122.9790,132.0626 L122.4330,131.0871 L121.8752,130.1214 L121.3059,129.1653 L120.7250,128.2191 L120.1329,127.2827 L119.5294,126.3562 L118.9149,125.4397 L118.2894,124.5331 L117.6531,123.6367 L117.0061,122.7503 L116.3485,121.8741 L115.6804,121.0081 L115.0021,120.1524 L114.3135,119.3071 L113.6149,118.4721 L112.9063,117.6475 L112.1880,116.8335 L111.4599,116.0299 L110.7224,115.2370 L109.9754,114.4548 L109.2191,113.6832 L108.4537,112.9224 L107.6792,112.1724 L106.8959,111.4332 L106.1037,110.7050 L105.3030,109.9878 L104.4937,109.2815 L103.6761,108.5864 L102.8502,107.9024 L102.0162,107.2296 L101.1742,106.5680 L100.3243,105.9177 L99.4667,105.2787 L98.6015,104.6512 L97.7288,104.0351 L96.8488,103.4305 L95.9615,102.8375 L95.0672,102.2561 L94.1659,101.6864 L93.2578,101.1284 L92.3430,100.5821 L91.4216,100.0477 L90.4938,99.5252 L89.5597,99.0146 L88.6194,98.5160 L87.6730,98.0294 L86.7207,97.5550 L85.7626,97.0927 L84.7989,96.6426 L83.8296,96.2047 L82.8550,95.7792 L81.8750,95.3660 L80.8899,94.9652 L79.8998,94.5770 L78.9048,94.2012 L77.9050,93.8380 L76.9006,93.4875 L75.8917,93.1497 L74.8785,92.8245 L73.8610,92.5122 L72.8394,92.2128 L71.8138,91.9262 L70.7843,91.6526 L69.7512,91.3920 L68.7144,91.1444 L67.6742,90.9100 L66.6306,90.6888 L65.5839,90.4807 L64.5340,90.2860 L63.4812,90.1045 L62.4256,89.9365 L61.3673,89.7819 L60.3065,89.6408 L59.2432,89.5132 L58.1776,89.3992 L57.1098,89.2989 L56.0400,89.2123 L54.9683,89.1394 L53.8948,89.0804 L52.8197,89.0352 L51.7430,89.0040 L50.6649,88.9867 L49.5856,88.9834 L48.5051,88.9943 L47.4236,89.0192 L46.3413,89.0584 L45.2582,89.1117 L44.1745,89.1794 L43.0903,89.2615 L42.0057,89.3579 L40.9209,89.4688 L39.8360,89.5942 L38.7511,89.7341 L37.6664,89.8887 L36.5819,90.0580 L35.4979,90.2419 L34.4144,90.4407 L33.3316,90.6543 L32.2496,90.8828 L31.1686,91.1262 L30.0886,91.3846 L29.0098,91.6580 L27.9323,91.9465 L26.8562,92.2502 L25.7818,92.5691 L24.7090,92.9033 L23.6381,93.2528 L22.5692,93.6176 L21.5023,93.9979 L20.4377,94.3936 L19.3755,94.8049 L18.3157,95.2317 L17.2585,95.6742 L16.2041,96.1324 L15.1525,96.6063 L14.1040,97.0960 L14.1040,97.0960 L12.4411,97.8665 L10.7774,98.5978 L9.1133,99.2903 L7.4489,99.9443 L5.7847,100.5602 L4.1210,101.1382 L2.4580,101.6787 L0.7961,102.1819 L0.0000,102.4055 L0.0000,200.0000 L3.1250,200.0000 L6.2500,200.0000 L9.3750,200.0000 L12.5000,200.0000 L15.6250,200.0000 L18.7500,200.0000 L21.8750,200.0000 L25.0000,200.0000 L28.1250,200.0000 L31.2500,200.0000 L34.3750,200.0000 L37.5000,200.0000 L40.6250,200.0000 L43.7500,200.0000 L46.8750,200.0000 L50.0000,200.0000 L53.1250,200.0000 L56.2500,200.0000 L59.3750,200.0000 L62.5000,200.0000 L65.6250,200.0000 L68.7500,200.0000 L71.8750,200.0000 L75.0000,200.0000 L78.1250,200.0000 L81.2500,200.0000 L84.3750,200.0000 L87.5000,200.0000 L90.6250,200.0000 L93.7500,200.0000 L96.8750,200.0000 L100.0000,200.0000 L103.1250,200.0000 L106.2500,200.0000 L109.3750,200.0000 L112.5000,200.0000 L115.6250,200.0000 L118.7500,200.0000 L121.8750,200.0000 L125.0000,200.0000 L128.1250,200.0000 L131.2500,200.0000 L134.3750,200.0000 L137.5000,200.0000 L140.6250,200.0000 L143.7500,200.0000 L146.8750,200.0000 L150.0000,200.0000 L153.1250,200.0000 L156.2500,200.0000 L159.3750,200.0000 L162.5000,200.0000 L165.6250,200.0000 L168.7500,200.0000 L171.8750,200.0000 L175.0000,200.0000 L178.1250,200.0000 L181.2500,200.0000 L184.3750,200.0000 L187.5000,200.0000 L190.6250,200.0000 L193.7500,200.0000 L196.8750,200.0000 L200.0000,200.0000 L200.0000,199.9976 L200.0000,199.9951 L200.0000,199.9927 L200.0000,199.9903 L200.0000,199.9878 L200.0000,199.9854 L200.0000,199.9829 L200.0000,199.9805 L200.0000,199.9781 L200.0000,199.9756 L200.0000,199.9732 L200.0000,199.9708 L200.0000,199.9683 L200.0000,199.9659 L200.0000,199.9634 L200.0000,199.9610 L200.0000,199.9586 L200.0000,199.9561 L200.0000,199.9537 L200.0000,199.9512 L200.0000,199.9488 L200.0000,199.9464 L200.0000,199.9439 L200.0000,199.9415 L200.0000,199.9391 L200.0000,199.9366 L200.0000,199.9342 L200.0000,199.9317 L200.0000,199.9293 L200.0000,199.9269 L200.0000,199.9244 L200.0000,199.9220 L200.0000,199.9196 L200.0000,199.9171 L200.0000,199.9147 L200.0000,199.9123 L200.0000,199.9098 L200.0000,199.9074 L200.0000,199.9049 L200.0000,199.9025 L200.0000,199.9001 L200.0000,199.8976 L200.0000,199.8952 L200.0000,199.8928 L200.0000,199.8903 L200.0000,199.8879 L200.0000,199.8854 L200.0000,199.8830 L200.0000,199.8806 L200.0000,199.8781 L200.0000,199.8757 L200.0000,199.8732 L200.0000,199.8708 L200.0000,199.8684 L200.0000,199.8659 L200.0000,199.8635 L200.0000,199.8611 L200.0000,199.8586 L200.0000,199.8562 L200.0000,199.8537 L200.0000,199.8513 L200.0000,199.8489 L200.0000,199.8464 L200.0000,199.8440 L200.0000,199.8416 L200.0000,199.8391 L200.0000,199.8367 L200.0000,199.8342 L200.0000,199.8318 L200.0000,199.8294 L200.0000,199.8269 L200.0000,199.8245 L200.0000,199.8221 L200.0000,199.8196 L200.0000,199.8172 L200.0000,199.8148 L200.0000,199.8123 L200.0000,199.8099 L200.0000,199.8074 L200.0000,199.8050 L200.0000,199.8026 L200.0000,199.8001 L200.0000,199.7977 L200.0000,199.7952 L200.0000,199.7928 L200.0000,199.7904 L200.0000,199.7879 L200.0000,199.7855 L200.0000,199.7831 L200.0000,199.7806 L200.0000,199.7782 L200.0000,199.7757 L200.0000,199.7733 L200.0000,199.7709 L200.0000,199.7684 L200.0000,199.7660 L200.0000,199.7636 L200.0000,199.7611 L200.0000,199.7587 L200.0000,199.7562 L200.0000,199.7538 L200.0000,199.7514 L200.0000,199.7489 L200.0000,199.7465 L200.0000,199.7441 L200.0000,199.7416 L200.0000,199.7392 L200.0000,199.7368 L200.0000,199.7343 L200.0000,199.7319 L200.0000,199.7294 L200.0000,199.7270 L200.0000,199.7246 L200.0000,199.7221 L200.0000,199.7197 L200.0000,199.7172 L200.0000,199.7148 L200.0000,199.7124 L200.0000,199.7099 L200.0000,199.7075 L200.0000,199.7051 L200.0000,199.7026 L200.0000,199.7002 L200.0000,199.6977 L200.0000,199.6953 L200.0000,199.6929 L200.0000,199.6904 L200.0000,199.6880 L199.2915,199.6260 L198.5835,199.5583 L197.8760,199.4847 L197.1691,199.4053 L196.4629,199.3201 L195.7573,199.2290 L195.0524,199.1322 L194.3483,199.0296 L193.6451,198.9211 L192.9426,198.8069 L192.2411,198.6868 L191.5405,198.5609 L190.8409,198.4292 L190.1424,198.2917 L189.4449,198.1484 L188.7485,197.9993 L188.0533,197.8444 L187.3594,197.6836 L186.6666,197.5171 L185.9752,197.3447 L185.2851,197.1665 L184.5964,196.9825 L183.9092,196.7927 L183.2234,196.5971 L182.5391,196.3957 L181.8565,196.1885 L181.1754,195.9754 L180.4960,195.7566 L179.8182,195.5319 L179.1423,195.3014 L178.4681,195.0651 L177.7957,194.8230 L177.1253,194.5751 L176.4567,194.3213 L175.7902,194.0618 L175.1256,193.7964 L174.4631,193.5253 L173.8027,193.2483 L173.1444,192.9655 L172.4884,192.6769 L171.8346,192.3824 L171.1830,192.0822 L170.5338,191.7762 L169.8869,191.4643 L169.2425,191.1466 L168.6005,190.8231 L167.9610,190.4938 L167.3241,190.1587 L166.6898,189.8178 L166.0581,189.4710 L165.4290,189.1184 L164.8027,188.7601 L164.1792,188.3959 L163.5585,188.0259 L162.9406,187.6500 L162.3257,187.2684 L161.7137,186.8810 L161.1047,186.4877 L160.4987,186.0886 L159.8958,185.6837 L159.2961,185.2730 L158.6995,184.8565 L158.1061,184.4342 L157.5160,184.0060 L156.9292,183.5720 L156.3457,183.1322 L155.7657,182.6866 L155.1890,182.2352 L154.6159,181.7780 L154.0463,181.3149 L153.4802,180.8461 L152.9178,180.3714 L152.3590,179.8909 L151.8040,179.4046 L151.2527,178.9125 L150.7051,178.4145 L150.1615,177.9108 L149.6217,177.4012 L149.0858,176.8858 L148.5539,176.3646 L148.0260,175.8375 L147.5022,175.3047 L146.9825,174.7660 L146.4669,174.2215 L145.9556,173.6712 L145.4485,173.1151 L144.9456,172.5532 L144.4471,171.9854 L143.9530,171.4119 L143.4633,170.8325 L142.9780,170.2473 L142.4973,169.6563 L142.0211,169.0594 L141.5495,168.4568 L141.0825,167.8483 L140.6202,167.2340 L140.1627,166.6139 L139.7099,165.9880 L139.2620,165.3562 L138.8189,164.7186 L138.3807,164.0753 L137.9475,163.4260 L137.5193,162.7710 L137.0961,162.1102 L136.6780,161.4435 L136.2650,160.7710 L135.8572,160.0927 L135.4547,159.4086 L135.0574,158.7187 L134.6654,158.0229 L134.2787,157.3213 L133.8975,156.6139 L133.5217,155.9007 L133.1513,155.1817 L132.7866,154.4568 L132.4274,153.7261 L132.0738,152.9896 L131.7258,152.2473 L131.3836,151.4992 L131.0472,150.7452 L130.7165,149.9854 L130.3917,149.2198 L130.0728,148.4484 L129.7598,147.6712 L129.4527,146.8881 L129.1518,146.0992 L128.8568,145.3045 L128.5680,144.5040 Z" fill="#FF4F00"/>
</g>
  <rect x="0" y="320" width="320" height="320" fill="#121212"/>
  <g transform="translate(0,320) scale(1.6) rotate(180,100,100)"><path xmlns="http://www.w3.org/2000/svg" d="M100.538 79.1952C108.405 89.9719 115.713 99.9825 130.461 100C115.713 100.017 108.405 110.028 100.538 120.805C91.3581 133.381 81.4163 147 58.0001 147C24.129 147 1.41209 184.88 0.156097 200L9.15527e-05 200L9.59239e-05 100L0.000100295 0.000192662L0.156091 0.000192668C1.4121 15.1202 24.1291 53.0002 58.0001 53.0002C81.4163 53.0002 91.3581 66.6193 100.538 79.1952Z" fill="#FFFFFF"/>
</g>
  <rect x="320" y="320" width="320" height="320" fill="#FF4F00"/>
  <g transform="translate(320,320) scale(1.6) rotate(270,100,100)"><path xmlns="http://www.w3.org/2000/svg" d="M154.082 79.1951C166.139 89.9719 177.338 99.9825 199.941 100C177.338 100.017 166.139 110.028 154.082 120.805C140.012 133.381 124.776 147 88.889 147C36.9794 147 2.16415 184.88 0.239243 200L0.000167847 200L0.000172218 100L0.000176589 2.28984e-05L0.239251 2.29012e-05C2.16416 15.12 36.9794 53.0001 88.8891 53.0001C124.776 53.0001 140.012 66.6193 154.082 79.1951Z" fill="#121212"/>
</g>
  <rect x="640" y="320" width="320" height="320" fill="#F3F3F3"/>
  <g transform="translate(640,320) scale(1.6)"><path xmlns="http://www.w3.org/2000/svg" d="M100 2.18557e-05L100 100L1.47744e-05 150L2.84124e-05 -6.51651e-06L100 2.18557e-05Z" fill="#FFA300"/>
</g>
  <rect x="960" y="320" width="320" height="320" fill="#FFFFFF"/>
  <g transform="translate(960,320) scale(1.6) rotate(90,100,100)"><path xmlns="http://www.w3.org/2000/svg" d="M200 2.73397e-05L200 100L8.74228e-06 200L3.49691e-05 1.11288e-06L200 2.73397e-05Z" fill="#FFA300"/>
</g>
  <rect x="1280" y="320" width="320" height="320" fill="#121212"/>
  <g transform="translate(1280,320) scale(1.6) rotate(180,100,100)"><path xmlns="http://www.w3.org/2000/svg" d="M154.082 79.1951C166.139 89.9719 177.338 99.9825 199.941 100C177.338 100.017 166.139 110.028 154.082 120.805C140.012 133.381 124.776 147 88.889 147C36.9794 147 2.16415 184.88 0.239243 200L0.000167847 200L0.000172218 100L0.000176589 2.28984e-05L0.239251 2.29012e-05C2.16416 15.12 36.9794 53.0001 88.8891 53.0001C124.776 53.0001 140.012 66.6193 154.082 79.1951Z" fill="#FFFFFF"/>
</g>
  <rect x="1600" y="320" width="320" height="320" fill="#FFFFFF"/>
  <g transform="translate(1600,320) scale(1.6) rotate(270,100,100)"><path xmlns="http://www.w3.org/2000/svg" d="M199.1357,102.6482 L197.4770,103.0780 L195.8203,103.4714 L194.1660,103.8289 L192.5144,104.1508 L190.8657,104.4373 L189.2204,104.6889 L187.5787,104.9057 L185.9410,105.0882 L184.3075,105.2366 L182.6786,105.3513 L181.0547,105.4326 L179.4359,105.4808 L177.8227,105.4961 L176.2153,105.4791 L174.6141,105.4298 L173.0193,105.3487 L171.4314,105.2361 L169.8506,105.0923 L168.2772,104.9176 L166.7116,104.7124 L165.1540,104.4769 L163.6048,104.2114 L162.0644,103.9164 L160.5329,103.5920 L159.0108,103.2387 L157.4984,102.8567 L155.9959,102.4463 L154.5037,102.0079 L153.0221,101.5418 L151.5514,101.0483 L150.0920,100.5277 L148.6441,99.9804 L147.2081,99.4066 L145.7842,98.8066 L144.3729,98.1809 L142.9744,97.5296 L141.5891,96.8532 L140.2172,96.1519 L138.8591,95.4261 L137.5150,94.6760 L136.1854,93.9020 L134.8705,93.1045 L133.5707,92.2836 L132.2862,91.4398 L131.0174,90.5733 L129.7645,89.6846 L128.5280,88.7738 L127.3081,87.8413 L126.1052,86.8874 L124.9195,85.9125 L123.7513,84.9168 L122.6011,83.9007 L121.4691,82.8645 L120.3556,81.8085 L119.2610,80.7330 L118.1855,79.6384 L117.1295,78.5249 L116.0933,77.3929 L115.0772,76.2427 L114.0816,75.0746 L113.1067,73.8889 L112.1528,72.6860 L111.2203,71.4661 L110.3096,70.2296 L109.4208,68.9768 L108.5544,67.7080 L107.7106,66.4235 L106.8898,65.1237 L106.0923,63.8089 L105.3183,62.4793 L104.5683,61.1353 L103.8425,59.7772 L103.1413,58.4054 L102.4649,57.0201 L101.8137,55.6217 L101.1880,54.2104 L100.5882,52.7866 L100.0144,51.3507 L99.4671,49.9029 L98.9466,48.4435 L98.4532,46.9729 L97.9872,45.4914 L97.5488,43.9993 L97.1386,42.4969 L96.7566,40.9845 L96.4034,39.4625 L96.0791,37.9311 L95.7842,36.3908 L95.5188,34.8417 L95.2834,33.2842 L95.0783,31.7187 L94.9037,30.1454 L94.7600,28.5647 L94.6475,26.9769 L94.5665,25.3823 L94.5174,23.7812 L94.5004,22.1739 L94.5159,20.5608 L94.5642,18.9422 L94.6456,17.3183 L94.7605,15.6896 L94.9090,14.0562 L95.0916,12.4186 L95.3086,10.7771 L95.5603,9.1319 L95.8470,7.4834 L96.1690,5.8320 L96.5267,4.1778 L96.9203,2.5213 L97.3502,0.8627 L97.5926,0.0000 L0.0000,0.0000 L0.0000,3.1250 L0.0000,6.2500 L0.0000,9.3750 L0.0000,12.5000 L0.0000,15.6250 L0.0000,18.7500 L0.0000,21.8750 L0.0000,25.0000 L0.0000,28.1250 L0.0000,31.2500 L0.0000,34.3750 L0.0000,37.5000 L0.0000,40.6250 L0.0000,43.7500 L0.0000,46.8750 L0.0000,50.0000 L0.0000,53.1250 L0.0000,56.2500 L0.0000,59.3750 L0.0000,62.5000 L0.0000,65.6250 L0.0000,68.7500 L0.0000,71.8750 L0.0000,75.0000 L0.0000,78.1250 L0.0000,81.2500 L0.0000,84.3750 L0.0000,87.5000 L0.0000,90.6250 L0.0000,93.7500 L0.0000,96.8750 L0.0000,100.0000 L0.0000,103.1250 L0.0000,106.2500 L0.0000,109.3750 L0.0000,112.5000 L0.0000,115.6250 L0.0000,118.7500 L0.0000,121.8750 L0.0000,125.0000 L0.0000,128.1250 L0.0000,131.2500 L0.0000,134.3750 L0.0000,137.5000 L0.0000,140.6250 L0.0000,143.7500 L0.0000,146.8750 L0.0000,150.0000 L0.0000,153.1250 L0.0000,156.2500 L0.0000,159.3750 L0.0000,162.5000 L0.0000,165.6250 L0.0000,168.7500 L0.0000,171.8750 L0.0000,175.0000 L0.0000,178.1250 L0.0000,181.2500 L0.0000,184.3750 L0.0000,187.5000 L0.0000,190.6250 L0.0000,193.7500 L0.0000,196.8750 L0.0000,200.0000 L3.1250,200.0000 L6.2500,200.0000 L9.3750,200.0000 L12.5000,200.0000 L15.6250,200.0000 L18.7500,200.0000 L21.8750,200.0000 L25.0000,200.0000 L28.1250,200.0000 L31.2500,200.0000 L34.3750,200.0000 L37.5000,200.0000 L40.6250,200.0000 L43.7500,200.0000 L46.8750,200.0000 L50.0000,200.0000 L53.1250,200.0000 L56.2500,200.0000 L59.3750,200.0000 L62.5000,200.0000 L65.6250,200.0000 L68.7500,200.0000 L71.8750,200.0000 L75.0000,200.0000 L78.1250,200.0000 L81.2500,200.0000 L84.3750,200.0000 L87.5000,200.0000 L90.6250,200.0000 L93.7500,200.0000 L96.8750,200.0000 L100.0000,200.0000 L103.1250,200.0000 L106.2500,200.0000 L109.3750,200.0000 L112.5000,200.0000 L115.6250,200.0000 L118.7500,200.0000 L121.8750,200.0000 L125.0000,200.0000 L128.1250,200.0000 L131.2500,200.0000 L134.3750,200.0000 L137.5000,200.0000 L140.6250,200.0000 L143.7500,200.0000 L146.8750,200.0000 L150.0000,200.0000 L153.1250,200.0000 L156.2500,200.0000 L159.3750,200.0000 L162.5000,200.0000 L165.6250,200.0000 L168.7500,200.0000 L171.8750,200.0000 L175.0000,200.0000 L178.1250,200.0000 L181.2500,200.0000 L184.3750,200.0000 L187.5000,200.0000 L190.6250,200.0000 L193.7500,200.0000 L196.8750,200.0000 L200.0000,200.0000 L200.0000,102.4055 Z" fill="#121212"/>
</g>
  <rect x="0" y="640" width="320" height="320" fill="#F3F3F3"/>
  <g transform="translate(0,640) scale(1.6)"><path xmlns="http://www.w3.org/2000/svg" d="M199.1357,102.6482 L197.4770,103.0780 L195.8203,103.4714 L194.1660,103.8289 L192.5144,104.1508 L190.8657,104.4373 L189.2204,104.6889 L187.5787,104.9057 L185.9410,105.0882 L184.3075,105.2366 L182.6786,105.3513 L181.0547,105.4326 L179.4359,105.4808 L177.8227,105.4961 L176.2153,105.4791 L174.6141,105.4298 L173.0193,105.3487 L171.4314,105.2361 L169.8506,105.0923 L168.2772,104.9176 L166.7116,104.7124 L165.1540,104.4769 L163.6048,104.2114 L162.0644,103.9164 L160.5329,103.5920 L159.0108,103.2387 L157.4984,102.8567 L155.9959,102.4463 L154.5037,102.0079 L153.0221,101.5418 L151.5514,101.0483 L150.0920,100.5277 L148.6441,99.9804 L147.2081,99.4066 L145.7842,98.8066 L144.3729,98.1809 L142.9744,97.5296 L141.5891,96.8532 L140.2172,96.1519 L138.8591,95.4261 L137.5150,94.6760 L136.1854,93.9020 L134.8705,93.1045 L133.5707,92.2836 L132.2862,91.4398 L131.0174,90.5733 L129.7645,89.6846 L128.5280,88.7738 L127.3081,87.8413 L126.1052,86.8874 L124.9195,85.9125 L123.7513,84.9168 L122.6011,83.9007 L121.4691,82.8645 L120.3556,81.8085 L119.2610,80.7330 L118.1855,79.6384 L117.1295,78.5249 L116.0933,77.3929 L115.0772,76.2427 L114.0816,75.0746 L113.1067,73.8889 L112.1528,72.6860 L111.2203,71.4661 L110.3096,70.2296 L109.4208,68.9768 L108.5544,67.7080 L107.7106,66.4235 L106.8898,65.1237 L106.0923,63.8089 L105.3183,62.4793 L104.5683,61.1353 L103.8425,59.7772 L103.1413,58.4054 L102.4649,57.0201 L101.8137,55.6217 L101.1880,54.2104 L100.5882,52.7866 L100.0144,51.3507 L99.4671,49.9029 L98.9466,48.4435 L98.4532,46.9729 L97.9872,45.4914 L97.5488,43.9993 L97.1386,42.4969 L96.7566,40.9845 L96.4034,39.4625 L96.0791,37.9311 L95.7842,36.3908 L95.5188,34.8417 L95.2834,33.2842 L95.0783,31.7187 L94.9037,30.1454 L94.7600,28.5647 L94.6475,26.9769 L94.5665,25.3823 L94.5174,23.7812 L94.5004,22.1739 L94.5159,20.5608 L94.5642,18.9422 L94.6456,17.3183 L94.7605,15.6896 L94.9090,14.0562 L95.0916,12.4186 L95.3086,10.7771 L95.5603,9.1319 L95.8470,7.4834 L96.1690,5.8320 L96.5267,4.1778 L96.9203,2.5213 L97.3502,0.8627 L97.5926,0.0000 L0.0000,0.0000 L0.0000,3.1250 L0.0000,6.2500 L0.0000,9.3750 L0.0000,12.5000 L0.0000,15.6250 L0.0000,18.7500 L0.0000,21.8750 L0.0000,25.0000 L0.0000,28.1250 L0.0000,31.2500 L0.0000,34.3750 L0.0000,37.5000 L0.0000,40.6250 L0.0000,43.7500 L0.0000,46.8750 L0.0000,50.0000 L0.0000,53.1250 L0.0000,56.2500 L0.0000,59.3750 L0.0000,62.5000 L0.0000,65.6250 L0.0000,68.7500 L0.0000,71.8750 L0.0000,75.0000 L0.0000,78.1250 L0.0000,81.2500 L0.0000,84.3750 L0.0000,87.5000 L0.0000,90.6250 L0.0000,93.7500 L0.0000,96.8750 L0.0000,100.0000 L0.0000,103.1250 L0.0000,106.2500 L0.0000,109.3750 L0.0000,112.5000 L0.0000,115.6250 L0.0000,118.7500 L0.0000,121.8750 L0.0000,125.0000 L0.0000,128.1250 L0.0000,131.2500 L0.0000,134.3750 L0.0000,137.5000 L0.0000,140.6250 L0.0000,143.7500 L0.0000,146.8750 L0.0000,150.0000 L0.0000,153.1250 L0.0000,156.2500 L0.0000,159.3750 L0.0000,162.5000 L0.0000,165.6250 L0.0000,168.7500 L0.0000,171.8750 L0.0000,175.0000 L0.0000,178.1250 L0.0000,181.2500 L0.0000,184.3750 L0.0000,187.5000 L0.0000,190.6250 L0.0000,193.7500 L0.0000,196.8750 L0.0000,200.0000 L3.1250,200.0000 L6.2500,200.0000 L9.3750,200.0000 L12.5000,200.0000 L15.6250,200.0000 L18.7500,200.0000 L21.8750,200.0000 L25.0000,200.0000 L28.1250,200.0000 L31.2500,200.0000 L34.3750,200.0000 L37.5000,200.0000 L40.6250,200.0000 L43.7500,200.0000 L46.8750,200.0000 L50.0000,200.0000 L53.1250,200.0000 L56.2500,200.0000 L59.3750,200.0000 L62.5000,200.0000 L65.6250,200.0000 L68.7500,200.0000 L71.8750,200.0000 L75.0000,200.0000 L78.1250,200.0000 L81.2500,200.0000 L84.3750,200.0000 L87.5000,200.0000 L90.6250,200.0000 L93.7500,200.0000 L96.8750,200.0000 L100.0000,200.0000 L103.1250,200.0000 L106.2500,200.0000 L109.3750,200.0000 L112.5000,200.0000 L115.6250,200.0000 L118.7500,200.0000 L121.8750,200.0000 L125.0000,200.0000 L128.1250,200.0000 L131.2500,200.0000 L134.3750,200.0000 L137.5000,200.0000 L140.6250,200.0000 L143.7500,200.0000 L146.8750,200.0000 L150.0000,200.0000 L153.1250,200.0000 L156.2500,200.0000 L159.3750,200.0000 L162.5000,200.0000 L165.6250,200.0000 L168.7500,200.0000 L171.8750,200.0000 L175.0000,200.0000 L178.1250,200.0000 L181.2500,200.0000 L184.3750,200.0000 L187.5000,200.0000 L190.6250,200.0000 L193.7500,200.0000 L196.8750,200.0000 L200.0000,200.0000 L200.0000,102.4055 Z" fill="#FFA300"/>
</g>
  <rect x="320" y="640" width="320" height="320" fill="#FF4F00"/>
  <g transform="translate(320,640) scale(1.6) rotate(90,100,100)"><path xmlns="http://www.w3.org/2000/svg" d="M100 2.18557e-05L100 150L2.13312e-05 200L3.49691e-05 -6.51651e-06L100 2.18557e-05Z" fill="#121212"/>
</g>
  <rect x="640" y="640" width="320" height="320" fill="#FF4F00"/>
  <g transform="translate(640,640) scale(1.6) rotate(180,100,100)"><path xmlns="http://www.w3.org/2000/svg" d="M154.082 79.1951C166.139 89.9719 177.338 99.9825 199.941 100C177.338 100.017 166.139 110.028 154.082 120.805C140.012 133.381 124.776 147 88.889 147C36.9794 147 2.16415 184.88 0.239243 200L0.000167847 200L0.000172218 100L0.000176589 2.28984e-05L0.239251 2.29012e-05C2.16416 15.12 36.9794 53.0001 88.8891 53.0001C124.776 53.0001 140.012 66.6193 154.082 79.1951Z" fill="#FFFFFF"/>
</g>
  <rect x="960" y="640" width="320" height="320" fill="#121212"/>
  <g transform="translate(960,640) scale(1.6) rotate(270,100,100)"><path xmlns="http://www.w3.org/2000/svg" d="M200 2.73397e-05L200 100L8.74228e-06 200L3.49691e-05 1.11288e-06L200 2.73397e-05Z" fill="#FF4F00"/>
</g>
  <rect x="1280" y="640" width="320" height="320" fill="#121212"/>
  <g transform="translate(1280,640) scale(1.6)"><path xmlns="http://www.w3.org/2000/svg" d="M97.8167,199.2025 L98.3201,197.5408 L98.8607,195.8780 L99.4389,194.2144 L100.0549,192.5504 L100.7091,190.8862 L101.4018,189.2222 L102.1334,187.5587 L102.9040,185.8960 L102.9040,185.8960 L103.3937,184.8476 L103.8676,183.7963 L104.3258,182.7420 L104.7683,181.6851 L105.1951,180.6254 L105.6064,179.5634 L106.0021,178.4989 L106.3824,177.4322 L106.7472,176.3634 L107.0967,175.2927 L107.4309,174.2201 L107.7498,173.1458 L108.0535,172.0699 L108.3420,170.9926 L108.6154,169.9139 L108.8738,168.8340 L109.1172,167.7531 L109.3457,166.6713 L109.5593,165.5886 L109.7581,164.5053 L109.9420,163.4214 L110.1113,162.3370 L110.2659,161.2524 L110.4058,160.1677 L110.5312,159.0829 L110.6421,157.9982 L110.7385,156.9137 L110.8206,155.8296 L110.8883,154.7460 L110.9416,153.6630 L110.9808,152.5808 L111.0057,151.4994 L111.0166,150.4190 L111.0133,149.3398 L110.9960,148.2618 L110.9648,147.1852 L110.9196,146.1101 L110.8606,145.0367 L110.7877,143.9651 L110.7011,142.8953 L110.6008,141.8276 L110.4868,140.7621 L110.3592,139.6989 L110.2181,138.6381 L110.0635,137.5799 L109.8955,136.5243 L109.7140,135.4716 L109.5193,134.4218 L109.3112,133.3750 L109.0900,132.3315 L108.8556,131.2913 L108.6080,130.2546 L108.3474,129.2215 L108.0738,128.1921 L107.7872,127.1665 L107.4878,126.1449 L107.1755,125.1274 L106.8503,124.1142 L106.5125,123.1053 L106.1620,122.1010 L105.7988,121.1012 L105.4230,120.1062 L105.0348,119.1161 L104.6340,118.1310 L104.2208,117.1510 L103.7953,116.1764 L103.3574,115.2071 L102.9073,114.2433 L102.4450,113.2852 L101.9706,112.3330 L101.4840,111.3866 L100.9854,110.4462 L100.4748,109.5121 L99.9523,108.5842 L99.4179,107.6628 L98.8716,106.7480 L98.3136,105.8398 L97.7439,104.9385 L97.1625,104.0441 L96.5695,103.1569 L95.9649,102.2768 L95.3488,101.4041 L94.7213,100.5388 L94.0823,99.6811 L93.4320,98.8312 L92.7704,97.9891 L92.0976,97.1550 L91.4136,96.3291 L90.7185,95.5114 L90.0122,94.7020 L89.2950,93.9012 L88.5668,93.1090 L87.8276,92.3256 L87.0776,91.5510 L86.3168,90.7855 L85.5452,90.0291 L84.7630,89.2820 L83.9701,88.5444 L83.1665,87.8162 L82.3525,87.0978 L81.5279,86.3891 L80.6929,85.6904 L79.8476,85.0017 L78.9919,84.3232 L78.1259,83.6550 L77.2497,82.9973 L76.3633,82.3502 L75.4669,81.7137 L74.5603,81.0881 L73.6438,80.4735 L72.7173,79.8699 L71.7809,79.2776 L70.8347,78.6966 L69.8786,78.1271 L68.9129,77.5692 L67.9374,77.0231 L66.9523,76.4888 L65.9577,75.9665 L64.9535,75.4563 L63.9398,74.9584 L62.9167,74.4729 L61.8843,73.9999 L60.8425,73.5396 L59.7915,73.0920 L58.7313,72.6573 L57.6620,72.2357 L56.5835,71.8272 L55.4960,71.4320 L55.4960,71.4320 L54.6955,71.1432 L53.9008,70.8482 L53.1119,70.5473 L52.3288,70.2402 L51.5515,69.9272 L50.7801,69.6083 L50.0145,69.2835 L49.2547,68.9528 L48.5007,68.6164 L47.7525,68.2742 L47.0102,67.9262 L46.2737,67.5726 L45.5430,67.2134 L44.8181,66.8487 L44.0990,66.4783 L43.3857,66.1025 L42.6783,65.7213 L41.9767,65.3346 L41.2809,64.9426 L40.5909,64.5453 L39.9067,64.1428 L39.2284,63.7350 L38.5558,63.3220 L37.8891,62.9039 L37.2282,62.4807 L36.5732,62.0525 L35.9239,61.6193 L35.2805,61.1811 L34.6428,60.7380 L34.0110,60.2901 L33.3850,59.8373 L32.7649,59.3798 L32.1505,58.9175 L31.5420,58.4505 L30.9393,57.9789 L30.3424,57.5027 L29.7513,57.0220 L29.1660,56.5367 L28.5866,56.0470 L28.0129,55.5529 L27.4451,55.0544 L26.8831,54.5515 L26.3270,54.0444 L25.7766,53.5331 L25.2321,53.0175 L24.6933,52.4978 L24.1604,51.9740 L23.6333,51.4461 L23.1121,50.9142 L22.5966,50.3783 L22.0870,49.8385 L21.5831,49.2949 L21.0851,48.7473 L20.5929,48.1960 L20.1066,47.6410 L19.6260,47.0822 L19.1513,46.5198 L18.6824,45.9537 L18.2193,45.3841 L17.7620,44.8110 L17.3105,44.2343 L16.8649,43.6543 L16.4250,43.0708 L15.9910,42.4840 L15.5628,41.8939 L15.1404,41.3005 L14.7239,40.7039 L14.3131,40.1042 L13.9082,39.5013 L13.5091,38.8953 L13.1158,38.2863 L12.7283,37.6743 L12.3466,37.0594 L11.9708,36.4415 L11.6007,35.8208 L11.2365,35.1973 L10.8781,34.5710 L10.5255,33.9419 L10.1788,33.3102 L9.8378,32.6759 L9.5027,32.0390 L9.1734,31.3995 L8.8499,30.7575 L8.5322,30.1131 L8.2203,29.4662 L7.9143,28.8170 L7.6140,28.1655 L7.3196,27.5116 L7.0310,26.8556 L6.7482,26.1973 L6.4712,25.5369 L6.2001,24.8744 L5.9347,24.2098 L5.6752,23.5433 L5.4215,22.8747 L5.1736,22.2043 L4.9316,21.5319 L4.6953,20.8577 L4.4649,20.1818 L4.2402,19.5040 L4.0214,18.8246 L3.8084,18.1435 L3.6013,17.4609 L3.3999,16.7766 L3.2044,16.0908 L3.0146,15.4036 L2.8307,14.7149 L2.6526,14.0248 L2.4803,13.3334 L2.3139,12.6406 L2.1532,11.9467 L1.9984,11.2515 L1.8494,10.5551 L1.7062,9.8576 L1.5688,9.1591 L1.4372,8.4595 L1.3115,7.7589 L1.1915,7.0574 L1.0774,6.3550 L0.9691,5.6517 L0.8666,4.9476 L0.7699,4.2427 L0.6791,3.5372 L0.5940,2.8309 L0.5148,2.1240 L0.4414,1.4165 L0.3738,0.7085 L0.3120,0.0000 L0.3120,0.0000 L0.3096,0.0000 L0.3071,0.0000 L0.3047,0.0000 L0.3023,0.0000 L0.2998,0.0000 L0.2974,0.0000 L0.2950,0.0000 L0.2925,0.0000 L0.2901,0.0000 L0.2876,0.0000 L0.2852,0.0000 L0.2828,0.0000 L0.2803,0.0000 L0.2779,0.0000 L0.2755,0.0000 L0.2730,0.0000 L0.2706,0.0000 L0.2681,0.0000 L0.2657,0.0000 L0.2633,0.0000 L0.2608,0.0000 L0.2584,0.0000 L0.2560,0.0000 L0.2535,0.0000 L0.2511,0.0000 L0.2486,0.0000 L0.2462,0.0000 L0.2438,0.0000 L0.2413,0.0000 L0.2389,0.0000 L0.2365,0.0000 L0.2340,0.0000 L0.2316,0.0000 L0.2291,0.0000 L0.2267,0.0000 L0.2243,0.0000 L0.2218,0.0000 L0.2194,0.0000 L0.2170,0.0000 L0.2145,0.0000 L0.2121,0.0000 L0.2096,0.0000 L0.2072,0.0000 L0.2048,0.0000 L0.2023,0.0000 L0.1999,0.0000 L0.1975,0.0000 L0.1950,0.0000 L0.1926,0.0000 L0.1901,0.0000 L0.1877,0.0000 L0.1853,0.0000 L0.1828,0.0000 L0.1804,0.0000 L0.1780,0.0000 L0.1755,0.0000 L0.1731,0.0000 L0.1706,0.0000 L0.1682,0.0000 L0.1658,0.0000 L0.1633,0.0000 L0.1609,0.0000 L0.1585,0.0000 L0.1560,0.0000 L0.1536,0.0000 L0.1511,0.0000 L0.1487,0.0000 L0.1463,0.0000 L0.1438,0.0000 L0.1414,0.0000 L0.1390,0.0000 L0.1365,0.0000 L0.1341,0.0000 L0.1316,0.0000 L0.1292,0.0000 L0.1268,0.0000 L0.1243,0.0000 L0.1219,0.0000 L0.1195,0.0000 L0.1170,0.0000 L0.1146,0.0000 L0.1121,0.0000 L0.1097,0.0000 L0.1073,0.0000 L0.1048,0.0000 L0.1024,0.0000 L0.1000,0.0000 L0.0975,0.0000 L0.0951,0.0000 L0.0926,0.0000 L0.0902,0.0000 L0.0878,0.0000 L0.0853,0.0000 L0.0829,0.0000 L0.0805,0.0000 L0.0780,0.0000 L0.0756,0.0000 L0.0731,0.0000 L0.0707,0.0000 L0.0683,0.0000 L0.0658,0.0000 L0.0634,0.0000 L0.0610,0.0000 L0.0585,0.0000 L0.0561,0.0000 L0.0536,0.0000 L0.0512,0.0000 L0.0488,0.0000 L0.0463,0.0000 L0.0439,0.0000 L0.0415,0.0000 L0.0390,0.0000 L0.0366,0.0000 L0.0341,0.0000 L0.0317,0.0000 L0.0293,0.0000 L0.0268,0.0000 L0.0244,0.0000 L0.0220,0.0000 L0.0195,0.0000 L0.0171,0.0000 L0.0146,0.0000 L0.0122,0.0000 L0.0098,0.0000 L0.0073,0.0000 L0.0049,0.0000 L0.0025,0.0000 L0.0000,0.0000 L0.0000,0.0000 L0.0000,3.1250 L0.0000,6.2500 L0.0000,9.3750 L0.0000,12.5000 L0.0000,15.6250 L0.0000,18.7500 L0.0000,21.8750 L0.0000,25.0000 L0.0000,28.1250 L0.0000,31.2500 L0.0000,34.3750 L0.0000,37.5000 L0.0000,40.6250 L0.0000,43.7500 L0.0000,46.8750 L0.0000,50.0000 L0.0000,53.1250 L0.0000,56.2500 L0.0000,59.3750 L0.0000,62.5000 L0.0000,65.6250 L0.0000,68.7500 L0.0000,71.8750 L0.0000,75.0000 L0.0000,78.1250 L0.0000,81.2500 L0.0000,84.3750 L0.0000,87.5000 L0.0000,90.6250 L0.0000,93.7500 L0.0000,96.8750 L0.0000,100.0000 L0.0000,103.1250 L0.0000,106.2500 L0.0000,109.3750 L0.0000,112.5000 L0.0000,115.6250 L0.0000,118.7500 L0.0000,121.8750 L0.0000,125.0000 L0.0000,128.1250 L0.0000,131.2500 L0.0000,134.3750 L0.0000,137.5000 L0.0000,140.6250 L0.0000,143.7500 L0.0000,146.8750 L0.0000,150.0000 L0.0000,153.1250 L0.0000,156.2500 L0.0000,159.3750 L0.0000,162.5000 L0.0000,165.6250 L0.0000,168.7500 L0.0000,171.8750 L0.0000,175.0000 L0.0000,178.1250 L0.0000,181.2500 L0.0000,184.3750 L0.0000,187.5000 L0.0000,190.6250 L0.0000,193.7500 L0.0000,196.8750 L0.0000,200.0000 L97.5926,200.0000 Z" fill="#FF4F00"/>
</g>
  <rect x="1600" y="640" width="320" height="320" fill="#121212"/>
  <g transform="translate(1600,640) scale(1.6) rotate(90,100,100)"><path xmlns="http://www.w3.org/2000/svg" d="M200 5.02279e-05L200 100L2.82157e-05 150L2.84124e-05 2.40011e-05L200 5.02279e-05Z" fill="#FFFFFF"/>
</g>
</svg>
