<?xml version='1.0' encoding='UTF-8'?>
<svg xmlns="http://www.w3.org/2000/svg" version="1.1" width="1920" height="960" viewBox="0 0 1920 960">
  <rect x="0" y="0" width="320" height="320" fill="#FF4F00"/>
  <g transform="translate(0,0) scale(1.6)"><path xmlns="http://www.w3.org/2000/svg" d="M133 116.667H166.333C166.333 79.848 136.485 50 99.6667 50C62.848 50 33 79.848 33 116.667H66.3333C66.3333 135.077 81.256 150 99.6667 150C118.077 150 133 135.077 133 116.667Z" fill="#F3F3F3"/>
</g>
  <rect x="320" y="0" width="320" height="320" fill="#F3F3F3"/>
  <g transform="translate(320,0) scale(1.6) rotate(90,100,100)"><path xmlns="http://www.w3.org/2000/svg" d="M50 50C50 22.3858 72.3858 8.74228e-06 100 8.74228e-06C127.614 8.74228e-06 150 22.3858 150 50V150C150 177.614 127.614 200 100 200C72.3858 200 50 177.614 50 150V50Z M66.66649999999998,146.333 A33.3333,33.3333 0 1,0 133.3331,146.333 A33.3333,33.3333 0 1,0 66.66649999999998,146.333 Z" fill="#FF4F00" fill-rule="evenodd"/>
</g>
  <rect x="640" y="0" width="320" height="320" fill="#4997D0"/>
  <g transform="translate(640,0) scale(1.6) rotate(180,100,100)"><path xmlns="http://www.w3.org/2000/svg" d="M50 50C50 22.3858 72.3858 8.74228e-06 100 8.74228e-06C127.614 8.74228e-06 150 22.3858 150 50V150C150 177.614 127.614 200 100 200C72.3858 200 50 177.614 50 150V50Z" fill="#F3F3F3"/>
</g>
  <rect x="960" y="0" width="320" height="320" fill="#121212"/>
  <g transform="translate(960,0) scale(1.6) rotate(270,100,100)"><path xmlns="http://www.w3.org/2000/svg" d="M50 50C50 22.3858 72.3858 8.74228e-06 100 8.74228e-06C127.614 8.74228e-06 150 22.3858 150 50V150C150 177.614 127.614 200 100 200C72.3858 200 50 177.614 50 150V50Z M66.66649999999998,100.0 A33.3333,33.3333 0 1,0 133.3331,100.0 A33.3333,33.3333 0 1,0 66.66649999999998,100.0 Z" fill="#FFA300" fill-rule="evenodd"/>
</g>
  <rect x="1280" y="0" width="320" height="320" fill="#FFFFFF"/>
  <g transform="translate(1280,0) scale(1.6)"><path xmlns="http://www.w3.org/2000/svg" d="M0.0,100.0 A100.0,50.0 0 1,0 200.0,100.0 A100.0,50.0 0 1,0 0.0,100.0 Z" fill="#FF4F00"/>
</g>
  <rect x="1600" y="0" width="320" height="320" fill="#F3F3F3"/>
  <g transform="translate(1600,0) scale(1.6) rotate(180,100,100)"><path xmlns="http://www.w3.org/2000/svg" d="M50 50C50 22.3858 72.3858 8.74228e-06 100 8.74228e-06C127.614 8.74228e-06 150 22.3858 150 50V150C150 177.614 127.614 200 100 200C72.3858 200 50 177.614 50 150V50Z" fill="#FFA300"/>
</g>
  <rect x="0" y="320" width="320" height="320" fill="#121212"/>
  <g transform="translate(0,320) scale(1.6)"><path xmlns="http://www.w3.org/2000/svg" d="M50 50C50 22.3858 72.3858 8.74228e-06 100 8.74228e-06C127.614 8.74228e-06 150 22.3858 150 50V150C150 177.614 127.614 200 100 200C72.3858 200 50 177.614 50 150V50Z M66.66649999999998,100.0 A33.3333,33.3333 0 1,0 133.3331,100.0 A33.3333,33.3333 0 1,0 66.66649999999998,100.0 Z" fill="#FFA300" fill-rule="evenodd"/>
</g>
  <rect x="320" y="320" width="320" height="320" fill="#F3F3F3"/>
  <g transform="translate(320,320) scale(1.6) rotate(90,100,100)"><path xmlns="http://www.w3.org/2000/svg" d="M50 50C50 22.3858 72.3858 8.74228e-06 100 8.74228e-06C127.614 8.74228e-06 150 22.3858 150 50V150C150 177.614 127.614 200 100 200C72.3858 200 50 177.614 50 150V50Z" fill="#121212"/>
</g>
  <rect x="640" y="320" width="320" height="320" fill="#F3F3F3"/>
  <g transform="translate(640,320) scale(1.6) rotate(180,100,100)"><path xmlns="http://www.w3.org/2000/svg" d="M50 50C50 22.3858 72.3858 8.74228e-06 100 8.74228e-06C127.614 8.74228e-06 150 22.3858 150 50V150C150 177.614 127.614 200 100 200C72.3858 200 50 177.614 50 150V50Z M66.66649999999998,146.333 A33.3333,33.3333 0 1,0 133.3331,146.333 A33.3333,33.3333 0 1,0 66.66649999999998,146.333 Z" fill="#FFA300" fill-rule="evenodd"/>
</g>
  <rect x="960" y="320" width="320" height="320" fill="#FFFFFF"/>
  <g transform="translate(960,320) scale(1.6) rotate(270,100,100)"><path xmlns="http://www.w3.org/2000/svg" d="M0.0,100.0 A100.0,50.0 0 1,0 200.0,100.0 A100.0,50.0 0 1,0 0.0,100.0 Z" fill="#FF4F00"/>
</g>
  <rect x="1280" y="320" width="320" height="320" fill="#F3F3F3"/>
  <g transform="translate(1280,320) scale(1.6)"><path xmlns="http://www.w3.org/2000/svg" d="M50 50C50 22.3858 72.3858 8.74228e-06 100 8.74228e-06C127.614 8.74228e-06 150 22.3858 150 50V150C150 177.614 127.614 200 100 200C72.3858 200 50 177.614 50 150V50Z M66.66649999999998,100.0 A33.3333,33.3333 0 1,0 133.3331,100.0 A33.3333,33.3333 0 1,0 66.66649999999998,100.0 Z" fill="#FFA300" fill-rule="evenodd"/>
</g>
  <rect x="1600" y="320" width="320" height="320" fill="#FF4F00"/>
  <g transform="translate(1600,320) scale(1.6) rotate(90,100,100)"><path xmlns="http://www.w3.org/2000/svg" d="M133 116.667H166.333C166.333 79.848 136.485 50 99.6667 50C62.848 50 33 79.848 33 116.667H66.3333C66.3333 135.077 81.256 150 99.6667 150C118.077 150 133 135.077 133 116.667Z" fill="#121212"/>
</g>
  <rect x="0" y="640" width="320" height="320" fill="#121212"/>
  <g transform="translate(0,640) scale(1.6) rotate(180,100,100)"><path xmlns="http://www.w3.org/2000/svg" d="M50 50C50 22.3858 72.3858 8.74228e-06 100 8.74228e-06C127.614 8.74228e-06 150 22.3858 150 50V150C150 177.614 127.614 200 100 200C72.3858 200 50 177.614 50 150V50Z" fill="#FF4F00"/>
</g>
  <rect x="320" y="640" width="320" height="320" fill="#FF4F00"/>
  <g transform="translate(320,640) scale(1.6) rotate(90,100,100)"><path xmlns="http://www.w3.org/2000/svg" d="M50 50C50 22.3858 72.3858 8.74228e-06 100 8.74228e-06C127.614 8.74228e-06 150 22.3858 150 50V150C150 177.614 127.614 200 100 200C72.3858 200 50 177.614 50 150V50Z M66.66649999999998,100.0 A33.3333,33.3333 0 1,0 133.3331,100.0 A33.3333,33.3333 0 1,0 66.66649999999998,100.0 Z" fill="#F3F3F3" fill-rule="evenodd"/>
</g>
  <rect x="640" y="640" width="320" height="320" fill="#F3F3F3"/>
  <g transform="translate(640,640) scale(1.6) rotate(180,100,100)"><path xmlns="http://www.w3.org/2000/svg" d="M133 116.667H166.333C166.333 79.848 136.485 50 99.6667 50C62.848 50 33 79.848 33 116.667H66.3333C66.3333 135.077 81.256 150 99.6667 150C118.077 150 133 135.077 133 116.667Z" fill="#FF4F00"/>
</g>
  <rect x="960" y="640" width="320" height="320" fill="#F3F3F3"/>
  <g transform="translate(960,640) scale(1.6) rotate(270,100,100)"><path xmlns="http://www.w3.org/2000/svg" d="M50 50C50 22.3858 72.3858 8.74228e-06 100 8.74228e-06C127.614 8.74228e-06 150 22.3858 150 50V150C150 177.614 127.614 200 100 200C72.3858 200 50 177.614 50 150V50Z M66.66649999999998,100.0 A33.3333,33.3333 0 1,0 133.3331,100.0 A33.3333,33.3333 0 1,0 66.66649999999998,100.0 Z" fill="#121212" fill-rule="evenodd"/>
</g>
  <rect x="1280" y="640" width="320" height="320" fill="#FF4F00"/>
  <g transform="translate(1280,640) scale(1.6)"><path xmlns="http://www.w3.org/2000/svg" d="M0.0,100.0 A100.0,50.0 0 1,0 200.0,100.0 A100.0,50.0 0 1,0 0.0,100.0 Z M66.66649999999998,100.0 A33.3333,33.3333 0 1,0 133.3331,100.0 A33.3333,33.3333 0 1,0 66.66649999999998,100.0 Z" fill="#121212" fill-rule="evenodd"/>
</g>
  <rect x="1600" y="640" width="320" height="320" fill="#FFFFFF"/>
  <g transform="translate(1600,640) scale(1.6) rotate(90,100,100)"><path xmlns="http://www.w3.org/2000/svg" d="M50 50C50 22.3858 72.3858 8.74228e-06 100 8.74228e-06C127.614 8.74228e-06 150 22.3858 150 50V150C150 177.614 127.614 200 100 200C72.3858 200 50 177.614 50 150V50Z M66.66649999999998,146.333 A33.3333,33.3333 0 1,0 133.3331,146.333 A33.3333,33.3333 0 1,0 66.66649999999998,146.333 Z" fill="#FF4F00" fill-rule="evenodd"/>
</g>
</svg>
