<?xml version='1.0' encoding='UTF-8'?>
<svg xmlns="http://www.w3.org/2000/svg" version="1.1" width="1920" height="960" viewBox="0 0 1920 960">
  <rect x="0" y="0" width="320" height="320" fill="#FF4F00"/>
  <g transform="translate(0,0) scale(1.6)"><path xmlns="http://www.w3.org/2000/svg" d="M150 4.25583e-05L150 150L8.74228e-06 150L3.82475e-05 2.28882e-05L150 4.25583e-05Z" fill="#121212"/>
</g>
  <rect x="320" y="0" width="320" height="320" fill="#F3F3F3"/>
  <g transform="translate(320,0) scale(1.6) rotate(90,100,100)"><path xmlns="http://www.w3.org/2000/svg" d="M154.082 79.1951C166.139 89.9719 177.338 99.9825 199.941 100C177.338 100.017 166.139 110.028 154.082 120.805C140.012 133.381 124.776 147 88.889 147C36.9794 147 2.16415 184.88 0.239243 200L0.000167847 200L0.000172218 100L0.000176589 2.28984e-05L0.239251 2.29012e-05C2.16416 15.12 36.9794 53.0001 88.8891 53.0001C124.776 53.0001 140.012 66.6193 154.082 79.1951Z" fill="#FFA300"/>
</g>
  <rect x="640" y="0" width="320" height="320" fill="#121212"/>
  <g transform="translate(640,0) scale(1.6) rotate(180,100,100)"><path xmlns="http://www.w3.org/2000/svg" d="M175 25L175 175L25 175L25 25L175 25Z" fill="#FF4F00"/>
</g>
  <rect x="960" y="0" width="320" height="320" fill="#F3F3F3"/>
  <g transform="translate(960,0) scale(1.6) rotate(270,100,100)"><path xmlns="http://www.w3.org/2000/svg" d="M164.256 27.6135C155.966 50.9277 129.333 61.9603 106.979 51.3361C71.4878 34.4669 34.4629 71.4918 51.3361 106.979C61.9603 129.329 50.9277 155.962 27.6135 164.256C10.4602 170.357 1.25699 184.868 8.74228e-06 200H200V8.74228e-06C184.868 1.26099 170.357 10.4602 164.256 27.6135Z" fill="#121212"/>
</g>
  <rect x="1280" y="0" width="320" height="320" fill="#F3F3F3"/>
  <g transform="translate(1280,0) scale(1.6)"><path xmlns="http://www.w3.org/2000/svg" d="M190 1.8399e-05L190 190L8.74228e-06 190L4.61155e-05 -6.51651e-06L190 1.8399e-05Z" fill="#121212"/>
</g>
  <rect x="1600" y="0" width="320" height="320" fill="#F3F3F3"/>
  <g transform="translate(1600,0) scale(1.6) rotate(90,100,100)"><path xmlns="http://www.w3.org/2000/svg" d="M164.256 27.6135C155.966 50.9277 129.333 61.9603 106.979 51.3361C71.4878 34.4669 34.4629 71.4918 51.3361 106.979C61.9603 129.329 50.9277 155.962 27.6135 164.256C10.4602 170.357 1.25699 184.868 8.74228e-06 200H200V8.74228e-06C184.868 1.26099 170.357 10.4602 164.256 27.6135Z" fill="#121212"/>
</g>
  <rect x="0" y="320" width="320" height="320" fill="#F3F3F3"/>
  <g transform="translate(0,320) scale(1.6) rotate(180,100,100)"><path xmlns="http://www.w3.org/2000/svg" d="M150 4.25583e-05L150 150L8.74228e-06 150L3.82475e-05 2.28882e-05L150 4.25583e-05Z" fill="#FF4F00"/>
</g>
  <rect x="320" y="320" width="320" height="320" fill="#F3F3F3"/>
  <g transform="translate(320,320) scale(1.6) rotate(270,100,100)"><path xmlns="http://www.w3.org/2000/svg" d="M150 50L150 150L50 150L50 50L150 50Z" fill="#121212"/>
</g>
  <rect x="640" y="320" width="320" height="320" fill="#4997D0"/>
  <g transform="translate(640,320) scale(1.6)"><path xmlns="http://www.w3.org/2000/svg" d="M100.538 79.1952C108.405 89.9719 115.713 99.9825 130.461 100C115.713 100.017 108.405 110.028 100.538 120.805C91.3581 133.381 81.4163 147 58.0001 147C24.129 147 1.41209 184.88 0.156097 200L9.15527e-05 200L9.59239e-05 100L0.000100295 0.000192662L0.156091 0.000192668C1.4121 15.1202 24.1291 53.0002 58.0001 53.0002C81.4163 53.0002 91.3581 66.6193 100.538 79.1952Z" fill="#F3F3F3"/>
</g>
  <rect x="960" y="320" width="320" height="320" fill="#121212"/>
  <g transform="translate(960,320) scale(1.6) rotate(90,100,100)"><path xmlns="http://www.w3.org/2000/svg" d="M150 4.25583e-05L150 150L8.74228e-06 150L3.82475e-05 2.28882e-05L150 4.25583e-05Z" fill="#FF4F00"/>
</g>
  <rect x="1280" y="320" width="320" height="320" fill="#121212"/>
  <g transform="translate(1280,320) scale(1.6) rotate(180,100,100)"><path xmlns="http://www.w3.org/2000/svg" d="M150 4.25583e-05L150 150L8.74228e-06 150L3.82475e-05 2.28882e-05L150 4.25583e-05Z" fill="#F3F3F3"/>
</g>
  <rect x="1600" y="320" width="320" height="320" fill="#F3F3F3"/>
  <g transform="translate(1600,320) scale(1.6) rotate(270,100,100)"><path xmlns="http://www.w3.org/2000/svg" d="M154.082 79.1951C166.139 89.9719 177.338 99.9825 199.941 100C177.338 100.017 166.139 110.028 154.082 120.805C140.012 133.381 124.776 147 88.889 147C36.9794 147 2.16415 184.88 0.239243 200L0.000167847 200L0.000172218 100L0.000176589 2.28984e-05L0.239251 2.29012e-05C2.16416 15.12 36.9794 53.0001 88.8891 53.0001C124.776 53.0001 140.012 66.6193 154.082 79.1951Z" fill="#FF4F00"/>
</g>
  <rect x="0" y="640" width="320" height="320" fill="#FF4F00"/>
  <g transform="translate(0,640) scale(1.6)"><path xmlns="http://www.w3.org/2000/svg" d="M150 4.25583e-05L150 150L8.74228e-06 150L3.82475e-05 2.28882e-05L150 4.25583e-05Z" fill="#F3F3F3"/>
</g>
  <rect x="320" y="640" width="320" height="320" fill="#F3F3F3"/>
  <g transform="translate(320,640) scale(1.6) rotate(90,100,100)"><path xmlns="http://www.w3.org/2000/svg" d="M150 50L150 150L50 150L50 50L150 50Z" fill="#FFA300"/>
</g>
  <rect x="640" y="640" width="320" height="320" fill="#FFFFFF"/>
  <g transform="translate(640,640) scale(1.6) rotate(180,100,100)"><path xmlns="http://www.w3.org/2000/svg" d="M190 1.8399e-05L190 190L8.74228e-06 190L4.61155e-05 -6.51651e-06L190 1.8399e-05Z" fill="#FF4F00"/>
</g>
  <rect x="960" y="640" width="320" height="320" fill="#F3F3F3"/>
  <g transform="translate(960,640) scale(1.6) rotate(270,100,100)"><path xmlns="http://www.w3.org/2000/svg" d="M150 50L150 150L50 150L50 50L150 50Z" fill="#FFA300"/>
</g>
  <rect x="1280" y="640" width="320" height="320" fill="#4997D0"/>
  <g transform="translate(1280,640) scale(1.6)"><path xmlns="http://www.w3.org/2000/svg" d="M190 1.8399e-05L190 190L8.74228e-06 190L4.61155e-05 -6.51651e-06L190 1.8399e-05Z" fill="#F3F3F3"/>
</g>
  <rect x="1600" y="640" width="320" height="320" fill="#4997D0"/>
  <g transform="translate(1600,640) scale(1.6) rotate(90,100,100)"><path xmlns="http://www.w3.org/2000/svg" d="M154.082 79.1951C166.139 89.9719 177.338 99.9825 199.941 100C177.338 100.017 166.139 110.028 154.082 120.805C140.012 133.381 124.776 147 88.889 147C36.9794 147 2.16415 184.88 0.239243 200L0.000167847 200L0.000172218 100L0.000176589 2.28984e-05L0.239251 2.29012e-05C2.16416 15.12 36.9794 53.0001 88.8891 53.0001C124.776 53.0001 140.012 66.6193 154.082 79.1951Z" fill="#F3F3F3"/>
</g>
</svg>
